<?xml version="1.0" encoding="utf-8"?>
<!-- Generator: Adobe Illustrator 19.0.0, SVG Export Plug-In . SVG Version: 6.00 Build 0)  -->
<svg version="1.1" id="Layer_1" xmlns="http://www.w3.org/2000/svg" xmlns:xlink="http://www.w3.org/1999/xlink" x="0px" y="0px"
	 viewBox="0 20 600 560" style="enable-background:new 0 20 600 560;" xml:space="preserve">
<style type="text/css">
	.st0{fill:#FFFFFF;}
	.st1{fill:#1E1E1C;}
</style>
<g id="XMLID_45_">
	<path id="XMLID_50_" class="st0" d="M37,187.4h-3v-10.9h-2.4c-0.5,1.1-1.6,1.4-3,1.4h-1.5v2.8h0.9c1.7,0,2.3-0.5,2.8-0.9v7.6h-3.7
		v2.7H37V187.4z"/>
	<path id="XMLID_298_" class="st0" d="M37,245.7h-3v-10.9h-2.4c-0.5,1.1-1.6,1.4-3,1.4h-1.5v2.8h0.9c1.7,0,2.3-0.5,2.8-0.9v7.6h-3.7
		v2.7H37V245.7z"/>
	<path id="XMLID_344_" class="st0" d="M37,303.1h-3v-10.9h-2.4c-0.5,1.1-1.6,1.4-3,1.4h-1.5v2.8h0.9c1.7,0,2.3-0.5,2.8-0.9v7.6h-3.7
		v2.7H37V303.1z"/>
	<path id="XMLID_345_" class="st0" d="M37,361.4h-3v-10.9h-2.4c-0.5,1.1-1.6,1.4-3,1.4h-1.5v2.8h0.9c1.7,0,2.3-0.5,2.8-0.9v7.6h-3.7
		v2.7H37V361.4z"/>
	<path id="XMLID_346_" class="st0" d="M31.3,418.4l2.8-1.3c1.9-0.9,3.6-2.1,3.6-4.4c0-2.5-2-4-5.3-4c-3.5,0-5.7,1.7-5.7,4.8h3
		c0-1.5,1-2.1,2.5-2.1c1.2,0,2.1,0.4,2.1,1.5c0,0.8-0.5,1.4-2.3,2.3l-2.7,1.3c-1.6,0.8-2.9,2.1-2.9,4.2v1.9h11.5v-2.7h-8.2
		C29.7,419.4,30.1,419,31.3,418.4z"/>
	<path id="XMLID_399_" class="st0" d="M589.7,126.5C589.7,126.5,589.7,126.5,589.7,126.5L560.4,29c-0.1-0.3-0.4-0.5-0.7-0.5h-521
		c-0.3,0-0.6,0.2-0.7,0.5L8.7,126.4c0,0,0,0.1,0,0.1c0,0,0,0.1,0,0.1l0.5,345.7c-0.1,0-0.3,0.1-0.3,0.2c-0.1,0.2-0.2,0.4-0.1,0.7
		L38,570.7c0.1,0.3,0.4,0.5,0.7,0.5h521c0.3,0,0.6-0.2,0.7-0.5l29.2-97.5c0,0,0-0.1,0-0.1c0,0,0-0.1,0-0.1V126.7
		C589.7,126.6,589.7,126.6,589.7,126.5z M588,125.9h-56.6L559.5,31L588,125.9z M558.3,29.9l-27.9,94.2l-27.9-94.2H558.3z
		 M529.7,203.6v18.5c-10.6,0.4-19.1,9.1-19.1,19.8c0,10.7,8.5,19.4,19.1,19.8v18.5c-10.6,0.4-19.1,9.1-19.1,19.8
		c0,10.7,8.5,19.4,19.1,19.8V338c-10.6,0.4-19.1,9.1-19.1,19.8s8.5,19.4,19.1,19.8V396c-10.6,0.4-19.1,9.1-19.1,19.8
		c0,10.7,8.5,19.4,19.1,19.8v36.7h-56.6v-36.7c10.6-0.4,19.1-9.1,19.1-19.8c0-10.7-8.5-19.4-19.1-19.8v-18.5
		c10.6-0.4,19.1-9.1,19.1-19.8s-8.5-19.4-19.1-19.8v-18.5c10.6-0.4,19.1-9.1,19.1-19.8c0-10.7-8.5-19.4-19.1-19.8v-18.5
		c10.6-0.4,19.1-9.1,19.1-19.8c0-10.7-8.5-19.4-19.1-19.8v-18.5c10.6-0.4,19.1-9.1,19.1-19.8c0-10.7-8.5-19.4-19.1-19.8v-36.7h56.6
		v36.7c-10.6,0.4-19.1,9.1-19.1,19.8C510.6,194.5,519.1,203.2,529.7,203.6z M529.4,125.9h-56.1l28.2-94.2L529.4,125.9z M500.5,29.9
		l-28.2,94.2l-27.6-94.2H500.5z M471.6,203.6v18.5c-10.6,0.4-19.1,9.1-19.1,19.8c0,10.7,8.5,19.4,19.1,19.8v18.5
		c-10.6,0.4-19.1,9.1-19.1,19.8c0,10.7,8.5,19.4,19.1,19.8V338c-10.6,0.4-19.1,9.1-19.1,19.8s8.5,19.4,19.1,19.8V396
		c-10.6,0.4-19.1,9.1-19.1,19.8c0,10.7,8.5,19.4,19.1,19.8v36.7h-56v-36.7c10.6-0.4,19.1-9.1,19.1-19.8c0-10.7-8.5-19.4-19.1-19.8
		v-18.5c10.6-0.4,19.1-9.1,19.1-19.8s-8.5-19.4-19.1-19.8v-18.5c10.6-0.4,19.1-9.1,19.1-19.8c0-10.7-8.5-19.4-19.1-19.8v-18.5
		c10.6-0.4,19.1-9.1,19.1-19.8c0-10.7-8.5-19.4-19.1-19.8v-18.5c10.6-0.4,19.1-9.1,19.1-19.8c0-10.7-8.5-19.4-19.1-19.8v-36.7h56
		v36.7c-10.6,0.4-19.1,9.1-19.1,19.8C452.5,194.5,461,203.2,471.6,203.6z M471.3,125.9h-55.5l27.9-94.1L471.3,125.9z M442.7,29.9
		l-27.9,94.2l-27.9-94.2H442.7z M414.1,203.6v18.5c-10.6,0.4-19.1,9.1-19.1,19.8c0,10.7,8.5,19.4,19.1,19.8v18.5
		c-10.6,0.4-19.1,9.1-19.1,19.8c0,10.7,8.5,19.4,19.1,19.8V338c-10.6,0.4-19.1,9.1-19.1,19.8s8.5,19.4,19.1,19.8V396
		c-10.6,0.4-19.1,9.1-19.1,19.8c0,10.7,8.5,19.4,19.1,19.8v36.7h-56.3v-36.7c10.6-0.4,19.1-9.1,19.1-19.8c0-10.7-8.5-19.4-19.1-19.8
		v-18.5c10.6-0.4,19.1-9.1,19.1-19.8s-8.5-19.4-19.1-19.8v-18.5c10.6-0.4,19.1-9.1,19.1-19.8c0-10.7-8.5-19.4-19.1-19.8v-18.5
		c10.6-0.4,19.1-9.1,19.1-19.8c0-10.7-8.5-19.4-19.1-19.8v-18.5c10.6-0.4,19.1-9.1,19.1-19.8c0-10.7-8.5-19.4-19.1-19.8v-36.7h56.3
		v36.7c-10.6,0.4-19.1,9.1-19.1,19.8C395,194.5,403.5,203.2,414.1,203.6z M413.8,125.9H358l27.9-94.2L413.8,125.9z M384.9,29.9
		L357,124.1l-27.9-94.2H384.9z M356.3,203.6v18.5c-10.6,0.4-19.1,9.1-19.1,19.8c0,10.7,8.5,19.4,19.1,19.8v18.5
		c-10.6,0.4-19.1,9.1-19.1,19.8c0,10.7,8.5,19.4,19.1,19.8V338c-10.6,0.4-19.1,9.1-19.1,19.8s8.5,19.4,19.1,19.8V396
		c-10.6,0.4-19.1,9.1-19.1,19.8c0,10.7,8.5,19.4,19.1,19.8v36.7H300v-36.7c10.6-0.4,19.1-9.1,19.1-19.8c0-10.7-8.5-19.4-19.1-19.8
		v-18.5c10.6-0.4,19.1-9.1,19.1-19.8s-8.5-19.4-19.1-19.8v-18.5c10.6-0.4,19.1-9.1,19.1-19.8c0-10.7-8.5-19.4-19.1-19.8v-18.5
		c10.6-0.4,19.1-9.1,19.1-19.8c0-10.7-8.5-19.4-19.1-19.8v-18.5c10.6-0.4,19.1-9.1,19.1-19.8c0-10.7-8.5-19.4-19.1-19.8v-36.7h56.3
		v36.7c-10.6,0.4-19.1,9.1-19.1,19.8C337.2,194.5,345.7,203.2,356.3,203.6z M356,125.9h-55.8l27.9-94.2L356,125.9z M327.1,29.9
		l-27.9,94.2l-27.9-94.2H327.1z M298.5,203.6v18.5c-10.6,0.4-19.1,9.1-19.1,19.8c0,10.7,8.5,19.4,19.1,19.8v18.5
		c-10.6,0.4-19.1,9.1-19.1,19.8c0,10.7,8.5,19.4,19.1,19.8V338c-10.6,0.4-19.1,9.1-19.1,19.8s8.5,19.4,19.1,19.8V396
		c-10.6,0.4-19.1,9.1-19.1,19.8c0,10.7,8.5,19.4,19.1,19.8v36.7h-56.3v-36.7c10.6-0.4,19.1-9.1,19.1-19.8c0-10.7-8.5-19.4-19.1-19.8
		v-18.5c10.6-0.4,19.1-9.1,19.1-19.8s-8.5-19.4-19.1-19.8v-18.5c10.6-0.4,19.1-9.1,19.1-19.8c0-10.7-8.5-19.4-19.1-19.8v-18.5
		c10.6-0.4,19.1-9.1,19.1-19.8c0-10.7-8.5-19.4-19.1-19.8v-18.5c10.6-0.4,19.1-9.1,19.1-19.8c0-10.7-8.5-19.4-19.1-19.8v-36.7h56.3
		v36.7c-10.6,0.4-19.1,9.1-19.1,19.8C279.4,194.5,287.9,203.2,298.5,203.6z M298.2,125.9h-55.8l27.9-94.2L298.2,125.9z M269.3,29.9
		l-27.9,94.2l-27.9-94.2H269.3z M240.7,203.6v18.5c-10.6,0.4-19.1,9.1-19.1,19.8c0,10.7,8.5,19.4,19.1,19.8v18.5
		c-10.6,0.4-19.1,9.1-19.1,19.8c0,10.7,8.5,19.4,19.1,19.8V338c-10.6,0.4-19.1,9.1-19.1,19.8s8.5,19.4,19.1,19.8V396
		c-10.6,0.4-19.1,9.1-19.1,19.8c0,10.7,8.5,19.4,19.1,19.8v36.7h-56.6v-36.7c10.6-0.4,19.1-9.1,19.1-19.8c0-10.7-8.5-19.4-19.1-19.8
		v-18.5c10.6-0.4,19.1-9.1,19.1-19.8s-8.5-19.4-19.1-19.8v-18.5c10.6-0.4,19.1-9.1,19.1-19.8c0-10.7-8.5-19.4-19.1-19.8v-18.5
		c10.6-0.4,19.1-9.1,19.1-19.8c0-10.7-8.5-19.4-19.1-19.8v-18.5c10.6-0.4,19.1-9.1,19.1-19.8c0-10.7-8.5-19.4-19.1-19.8v-36.7h56.6
		v36.7c-10.6,0.4-19.1,9.1-19.1,19.8C221.6,194.5,230.1,203.2,240.7,203.6z M240.4,125.9h-56.1l28.2-94.2L240.4,125.9z M211.5,29.9
		l-28.2,94.2l-27.6-94.2H211.5z M182.6,203.6v18.5c-10.6,0.4-19.1,9.1-19.1,19.8c0,10.7,8.5,19.4,19.1,19.8v18.5
		c-10.6,0.4-19.1,9.1-19.1,19.8c0,10.7,8.5,19.4,19.1,19.8V338c-10.6,0.4-19.1,9.1-19.1,19.8s8.5,19.4,19.1,19.8V396
		c-10.6,0.4-19.1,9.1-19.1,19.8c0,10.7,8.5,19.4,19.1,19.8v36.7h-56v-36.7c10.6-0.4,19.1-9.1,19.1-19.8c0-10.7-8.5-19.4-19.1-19.8
		v-18.5c10.6-0.4,19.1-9.1,19.1-19.8s-8.5-19.4-19.1-19.8v-18.5c10.6-0.4,19.1-9.1,19.1-19.8c0-10.7-8.5-19.4-19.1-19.8v-18.5
		c10.6-0.4,19.1-9.1,19.1-19.8c0-10.7-8.5-19.4-19.1-19.8v-18.5c10.6-0.4,19.1-9.1,19.1-19.8c0-10.7-8.5-19.4-19.1-19.8v-36.7h56
		v36.7c-10.6,0.4-19.1,9.1-19.1,19.8C163.5,194.5,172,203.2,182.6,203.6z M182.4,125.9h-55.5l27.9-94.1L182.4,125.9z M153.7,29.9
		l-27.9,94.2L97.9,29.9H153.7z M125.1,203.6v18.5c-10.6,0.4-19.1,9.1-19.1,19.8c0,10.7,8.5,19.4,19.1,19.8v18.5
		c-10.6,0.4-19.1,9.1-19.1,19.8c0,10.7,8.5,19.4,19.1,19.8V338c-10.6,0.4-19.1,9.1-19.1,19.8s8.5,19.4,19.1,19.8V396
		c-10.6,0.4-19.1,9.1-19.1,19.8c0,10.7,8.5,19.4,19.1,19.8v36.7H68.8v-36.7c10.6-0.4,19.1-9.1,19.1-19.8c0-10.7-8.5-19.4-19.1-19.8
		v-18.5c10.6-0.4,19.1-9.1,19.1-19.8s-8.5-19.4-19.1-19.8v-18.5c10.6-0.4,19.1-9.1,19.1-19.8c0-10.7-8.5-19.4-19.1-19.8v-18.5
		c10.6-0.4,19.1-9.1,19.1-19.8c0-10.7-8.5-19.4-19.1-19.8v-18.5c10.6-0.4,19.1-9.1,19.1-19.8c0-10.7-8.5-19.4-19.1-19.8v-36.7h56.3
		v36.7c-10.6,0.4-19.1,9.1-19.1,19.8C106,194.5,114.5,203.2,125.1,203.6z M124.8,125.9H69l27.9-94.2L124.8,125.9z M95.9,29.9
		L68,124.1L40.4,29.9H95.9z M39.1,30.5l28,95.4H10.4L39.1,30.5z M10.2,127.4h57.1v36.7c-8.2,0.3-15.2,5.6-17.9,13
		c-0.9-0.6-2.1-0.9-3.5-0.9c-4.2,0-5.6,2.4-5.6,4.6c0,2.4,1.7,4.4,4.7,4.4c1.3,0,2.4-0.4,3.2-1c0,0.7,0.1,1.3,0.1,1.9
		c-0.4,1-1.2,1.6-2.6,1.6c-1.6,0-2.2-0.8-2.4-1.6h-3c0,1.5,1.2,4.1,5.4,4.1c1.3,0,2.4-0.2,3.2-0.7c2.4,7.9,9.6,13.7,18.2,14v18.5
		c-8.3,0.3-15.3,5.8-17.9,13.2c-0.9-0.5-2-0.8-3.4-0.8c-4.2,0-5.6,2.4-5.6,4.6c0,2.4,1.7,4.4,4.7,4.4c1.3,0,2.4-0.4,3.3-1
		c0,0.6,0.1,1.3,0.1,1.9c-0.4,1-1.2,1.6-2.6,1.6c-1.6,0-2.2-0.8-2.4-1.6h-3c0,1.5,1.2,4.1,5.4,4.1c1.3,0,2.4-0.3,3.3-0.8
		c2.5,7.8,9.6,13.5,18.1,13.8v18.5c-8.1,0.3-15,5.5-17.8,12.8c-0.9-0.6-2.1-0.9-3.6-0.9c-4.2,0-5.6,2.4-5.6,4.6
		c0,2.4,1.7,4.3,4.7,4.3c1.3,0,2.4-0.4,3.2-0.9c0,0.7,0,1.3,0.1,2c-0.4,0.9-1.2,1.5-2.5,1.5c-1.6,0-2.2-0.8-2.4-1.6h-3
		c0,1.5,1.2,4.1,5.4,4.1c1.2,0,2.3-0.2,3.2-0.7c2.3,8,9.6,13.9,18.3,14.3V338c-8.2,0.3-15.2,5.6-17.9,13c-0.9-0.6-2.1-0.9-3.5-0.9
		c-4.2,0-5.6,2.4-5.6,4.6c0,2.4,1.7,4.4,4.7,4.4c1.3,0,2.4-0.4,3.2-1c0,0.7,0.1,1.3,0.1,1.9c-0.4,1-1.2,1.6-2.6,1.6
		c-1.6,0-2.2-0.8-2.4-1.6h-3c0,1.5,1.2,4.1,5.4,4.1c1.3,0,2.4-0.2,3.2-0.7c2.4,7.9,9.6,13.7,18.2,14V396c-8.4,0.3-15.4,5.8-18,13.4
		c-0.9-0.5-1.9-0.8-3.2-0.8c-4.1,0-6,2.8-6,7.1c0,4.4,1.9,7,6,7c1.3,0,2.3-0.3,3.2-0.8c2.5,7.6,9.6,13.2,18,13.5v36.7H10.7
		L10.2,127.4z M48.3,182.1c-0.7,0.4-1.6,0.7-2.5,0.7c-1.3,0-2.4-0.5-2.4-2c0-1.3,0.8-2,2.5-2c1.4,0,2.2,0.6,2.6,1.8
		C48.4,181.1,48.4,181.6,48.3,182.1z M48.3,240.3c-0.7,0.4-1.6,0.7-2.5,0.7c-1.3,0-2.4-0.5-2.4-2c0-1.3,0.8-2,2.5-2
		c1.3,0,2.1,0.5,2.6,1.7C48.4,239.3,48.3,239.8,48.3,240.3z M48.3,297.7c-0.7,0.4-1.6,0.7-2.5,0.7c-1.3,0-2.4-0.5-2.4-2
		c0-1.3,0.8-2,2.5-2c1.4,0,2.2,0.6,2.6,1.9C48.5,296.8,48.4,297.3,48.3,297.7z M48.3,356c-0.7,0.4-1.6,0.7-2.5,0.7
		c-1.3,0-2.4-0.5-2.4-2c0-1.3,0.8-2,2.5-2c1.4,0,2.2,0.6,2.6,1.8C48.4,355,48.4,355.5,48.3,356z M48.4,418.3c-0.3,1-1,1.6-2.3,1.6
		c-2.3,0-2.6-1.8-2.6-4.3s0.4-4.3,2.6-4.3c1.4,0,2,0.6,2.4,1.7c-0.1,0.9-0.2,1.8-0.2,2.7C48.2,416.6,48.3,417.5,48.4,418.3z
		 M10.7,474.5l0-0.8H67l-28.1,94.9L10.7,474.5z M40.1,569.7L68,475.6l27.9,94.2H40.1z M69,473.7h56.1l-28.2,94.2L69,473.7z
		 M97.9,569.7l28.2-94.2l27.6,94.2H97.9z M127.1,473.7h55.5l-27.9,94.1L127.1,473.7z M155.7,569.7l27.9-94.2l27.9,94.2H155.7z
		 M184.6,473.7h55.8l-27.9,94.2L184.6,473.7z M213.5,569.7l27.9-94.2l27.9,94.2H213.5z M242.4,473.7h55.8l-27.9,94.2L242.4,473.7z
		 M271.3,569.7l27.9-94.2l27.9,94.2H271.3z M300.2,473.7H356l-27.9,94.2L300.2,473.7z M329.1,569.7l27.9-94.2l27.9,94.2H329.1z
		 M358,473.7h56.1l-28.2,94.2L358,473.7z M386.9,569.7l28.2-94.2l27.6,94.2H386.9z M416.1,473.7h55.5l-27.9,94.1L416.1,473.7z
		 M444.7,569.7l27.9-94.2l27.9,94.2H444.7z M473.6,473.7h55.8l-27.9,94.2L473.6,473.7z M502.5,569.7l27.9-94.1l27.6,94.1H502.5z
		 M559.4,569.1l-28-95.4H588L559.4,569.1z M588.2,472.3h-57.1v-36.7c10.6-0.4,19.1-9.1,19.1-19.8c0-10.7-8.5-19.4-19.1-19.8v-18.5
		c10.6-0.4,19.1-9.1,19.1-19.8s-8.5-19.4-19.1-19.8v-18.5c10.6-0.4,19.1-9.1,19.1-19.8c0-10.7-8.5-19.4-19.1-19.8v-18.5
		c10.6-0.4,19.1-9.1,19.1-19.8c0-10.7-8.5-19.4-19.1-19.8v-18.5c10.6-0.4,19.1-9.1,19.1-19.8c0-10.7-8.5-19.4-19.1-19.8v-36.7h57.1
		V472.3z"/>
</g>
<g id="XMLID_44_">
	<path id="XMLID_294_" class="st1" d="M63.2,179.1h-4.6v1.9h-2.8v-4.4H67v2.3c-3.6,3.3-4.9,6.8-4.9,11.3h-3.3
		C58.8,185.1,60.1,182.1,63.2,179.1z"/>
	<path id="XMLID_296_" class="st1" d="M69.4,188.2c0-2.1,1.3-3.5,2.9-4.2l2.7-1.3c1.8-0.8,2.3-1.4,2.3-2.3c0-1.1-0.9-1.5-2.1-1.5
		c-1.5,0-2.5,0.7-2.5,2.1h-3c0-3.1,2.2-4.8,5.7-4.8c3.3,0,5.3,1.5,5.3,4c0,2.3-1.7,3.6-3.6,4.4l-2.8,1.3c-1.2,0.6-1.6,0.9-1.6,1.4
		H81v2.7H69.4V188.2z"/>
</g>
<g id="XMLID_43_">
	<path id="XMLID_288_" class="st1" d="M55,244.6c0-1.7,1-2.6,2.2-3.2c-1.1-0.5-1.9-1.5-1.9-3c0-2.8,2.6-4,5.6-4
		c3.1,0,5.5,1.2,5.5,3.9c0,1.5-0.8,2.5-1.9,3c1.2,0.5,2.3,1.5,2.3,3.2c0,2.7-2.8,4-6,4C57.6,248.6,55,247.3,55,244.6z M63.6,244.3
		c0-1.3-1.1-1.7-2.6-1.7c-1.5,0-2.6,0.4-2.6,1.7c0,1.3,1.1,1.7,2.6,1.7C62.5,246,63.6,245.6,63.6,244.3z M63.3,238.7
		c0-1.2-0.9-1.6-2.3-1.6c-1.4,0-2.3,0.5-2.3,1.6c0,1.2,0.8,1.7,2.3,1.7C62.4,240.4,63.3,239.9,63.3,238.7z"/>
	<path id="XMLID_292_" class="st1" d="M70.2,245.7h3.7v-7.6c-0.5,0.4-1.1,0.9-2.8,0.9h-0.9v-2.8h1.5c1.4,0,2.5-0.4,3-1.4h2.4v10.9h3
		v2.7h-9.9V245.7z"/>
</g>
<g id="XMLID_42_">
	<path id="XMLID_282_" class="st1" d="M55.3,301.9h3c0.1,0.8,0.8,1.6,2.4,1.6c2.3,0,2.9-1.6,3-3.9c-0.9,0.8-2.2,1.4-3.8,1.4
		c-2.9,0-4.7-1.9-4.7-4.3c0-2.2,1.4-4.6,5.6-4.6c4,0,6,2.4,6,6.9c0,4.7-2,7.2-6.1,7.2C56.5,306,55.3,303.4,55.3,301.9z M63.6,297.4
		c-0.2-2.1-1.1-3-2.8-3c-1.6,0-2.5,0.8-2.5,2c0,1.4,1.1,2,2.4,2C61.8,298.5,62.9,298,63.6,297.4z"/>
	<path id="XMLID_285_" class="st1" d="M69.1,299c0-4.4,1.8-7.1,6-7.1c4.2,0,6,2.7,6,7c0,4.3-1.8,7.1-6,7.1
		C71,306,69.1,303.4,69.1,299z M77.7,298.9c0-2.5-0.4-4.3-2.6-4.3c-2.3,0-2.6,1.8-2.6,4.3c0,2.5,0.4,4.3,2.6,4.3
		C77.4,303.2,77.7,301.4,77.7,298.9z"/>
</g>
<g id="XMLID_41_">
	<path id="XMLID_276_" class="st1" d="M55.3,360.1h3c0.1,0.8,0.8,1.6,2.4,1.6c2.3,0,2.9-1.6,3-3.9c-0.9,0.8-2.2,1.4-3.8,1.4
		c-2.9,0-4.7-1.9-4.7-4.4c0-2.2,1.4-4.6,5.6-4.6c4,0,6,2.4,6,6.9c0,4.8-2,7.2-6.1,7.2C56.5,364.3,55.3,361.7,55.3,360.1z
		 M63.6,355.7c-0.2-2.1-1.1-3-2.8-3c-1.6,0-2.5,0.8-2.5,2c0,1.4,1.1,2,2.4,2C61.8,356.7,62.9,356.3,63.6,355.7z"/>
	<path id="XMLID_279_" class="st1" d="M69.5,360.1h3c0.1,0.8,0.8,1.6,2.4,1.6c2.3,0,2.9-1.6,3-3.9c-0.9,0.8-2.2,1.4-3.8,1.4
		c-2.9,0-4.7-1.9-4.7-4.4c0-2.2,1.4-4.6,5.6-4.6c4,0,6,2.4,6,6.9c0,4.8-2,7.2-6.1,7.2C70.6,364.3,69.5,361.7,69.5,360.1z
		 M77.8,355.7c-0.2-2.1-1.1-3-2.8-3c-1.6,0-2.5,0.8-2.5,2c0,1.4,1.1,2,2.4,2C76,356.7,77,356.3,77.8,355.7z"/>
</g>
<g id="XMLID_40_">
	<path id="XMLID_269_" class="st1" d="M55,415.8c0-4.4,1.8-7.1,6-7.1c4.2,0,6,2.7,6,7c0,4.3-1.8,7.2-6,7.2
		C56.8,422.8,55,420.1,55,415.8z M63.6,415.7c0-2.5-0.4-4.3-2.6-4.3c-2.3,0-2.6,1.8-2.6,4.3c0,2.5,0.4,4.3,2.6,4.3
		C63.2,420,63.6,418.2,63.6,415.7z"/>
	<path id="XMLID_272_" class="st1" d="M69.1,418.8c0-1.7,1-2.6,2.2-3.2c-1.1-0.5-1.9-1.5-1.9-3c0-2.8,2.6-4,5.6-4
		c3.1,0,5.5,1.2,5.5,3.9c0,1.5-0.8,2.5-1.9,3c1.2,0.5,2.3,1.5,2.3,3.2c0,2.7-2.8,4-6,4C71.7,422.8,69.1,421.5,69.1,418.8z
		 M77.7,418.4c0-1.3-1.1-1.7-2.6-1.7c-1.5,0-2.6,0.4-2.6,1.7c0,1.3,1.1,1.7,2.6,1.7C76.6,420.2,77.7,419.7,77.7,418.4z M77.4,412.9
		c0-1.2-0.9-1.6-2.3-1.6c-1.4,0-2.3,0.5-2.3,1.6c0,1.2,0.8,1.7,2.3,1.7C76.6,414.6,77.4,414,77.4,412.9z"/>
</g>
<g id="XMLID_39_">
	<path id="XMLID_265_" class="st1" d="M121,179.1h-4.6v1.9h-2.8v-4.4h11.2v2.3c-3.6,3.3-4.9,6.8-4.9,11.3h-3.3
		C116.6,185.1,117.9,182.1,121,179.1z"/>
	<path id="XMLID_267_" class="st1" d="M127.4,185.8h3c0,1.6,1.1,2,2.5,2c1.7,0,2.6-0.6,2.6-1.7c0-1.1-0.9-1.6-2.4-1.6h-1.1v-2.2h1.1
		c1.4,0,2.1-0.5,2.1-1.6c0-1-0.7-1.7-2.2-1.7c-1.3,0-2.4,0.5-2.4,2h-3c0-3.2,2.5-4.6,5.5-4.6c3.1,0,5.5,1.4,5.5,4
		c0,1.3-0.7,2.5-1.9,3c1.4,0.5,2.3,1.7,2.3,3.2c0,2.7-2.7,4-5.8,4C129.9,190.4,127.4,188.9,127.4,185.8z"/>
</g>
<g id="XMLID_38_">
	<path id="XMLID_259_" class="st1" d="M112.8,244.6c0-1.7,1-2.6,2.2-3.2c-1.1-0.5-1.9-1.5-1.9-3c0-2.8,2.6-4,5.6-4
		c3.1,0,5.5,1.2,5.5,3.9c0,1.5-0.8,2.5-1.9,3c1.2,0.5,2.3,1.5,2.3,3.2c0,2.7-2.8,4-6,4C115.4,248.6,112.8,247.3,112.8,244.6z
		 M121.4,244.3c0-1.3-1.1-1.7-2.6-1.7c-1.5,0-2.6,0.4-2.6,1.7c0,1.3,1.1,1.7,2.6,1.7C120.3,246,121.4,245.6,121.4,244.3z
		 M121.1,238.7c0-1.2-0.9-1.6-2.3-1.6c-1.4,0-2.3,0.5-2.3,1.6c0,1.2,0.8,1.7,2.3,1.7C120.2,240.4,121.1,239.9,121.1,238.7z"/>
	<path id="XMLID_263_" class="st1" d="M127.2,246.4c0-2.1,1.3-3.5,2.9-4.2l2.7-1.3c1.8-0.8,2.3-1.4,2.3-2.3c0-1.1-0.9-1.5-2.1-1.5
		c-1.5,0-2.5,0.7-2.5,2.1h-3c0-3.1,2.2-4.8,5.7-4.8c3.3,0,5.3,1.5,5.3,4c0,2.3-1.7,3.6-3.6,4.4l-2.8,1.3c-1.2,0.6-1.6,0.9-1.6,1.4
		h8.2v2.7h-11.5V246.4z"/>
</g>
<g id="XMLID_37_">
	<path id="XMLID_254_" class="st1" d="M113.1,301.9h3c0.1,0.8,0.8,1.6,2.4,1.6c2.3,0,2.9-1.6,3-3.9c-0.9,0.8-2.2,1.4-3.8,1.4
		c-2.9,0-4.7-1.9-4.7-4.3c0-2.2,1.4-4.6,5.6-4.6c4,0,6,2.4,6,6.9c0,4.7-2,7.2-6.1,7.2C114.3,306,113.1,303.4,113.1,301.9z
		 M121.4,297.4c-0.2-2.1-1.1-3-2.8-3c-1.6,0-2.5,0.8-2.5,2c0,1.4,1.1,2,2.4,2C119.6,298.5,120.7,298,121.4,297.4z"/>
	<path id="XMLID_257_" class="st1" d="M128,303.1h3.7v-7.6c-0.5,0.4-1.1,0.9-2.8,0.9H128v-2.8h1.5c1.4,0,2.5-0.4,3-1.4h2.4v10.9h3
		v2.7H128V303.1z"/>
</g>
<g id="XMLID_36_">
	<path id="XMLID_248_" class="st1" d="M112.8,357.3c0-4.4,1.8-7.1,6-7.1c4.2,0,6,2.7,6,7c0,4.3-1.8,7.2-6,7.2
		C114.6,364.3,112.8,361.7,112.8,357.3z M121.4,357.2c0-2.5-0.4-4.3-2.6-4.3c-2.3,0-2.6,1.8-2.6,4.3c0,2.5,0.4,4.3,2.6,4.3
		C121,361.5,121.4,359.7,121.4,357.2z"/>
	<path id="XMLID_251_" class="st1" d="M126.9,357.3c0-4.4,1.8-7.1,6-7.1c4.2,0,6,2.7,6,7c0,4.3-1.8,7.2-6,7.2
		C128.8,364.3,126.9,361.7,126.9,357.3z M135.5,357.2c0-2.5-0.4-4.3-2.6-4.3c-2.3,0-2.6,1.8-2.6,4.3c0,2.5,0.4,4.3,2.6,4.3
		C135.2,361.5,135.5,359.7,135.5,357.2z"/>
</g>
<g id="XMLID_35_">
	<path id="XMLID_242_" class="st1" d="M112.8,415.8c0-4.4,1.8-7.1,6-7.1c4.2,0,6,2.7,6,7c0,4.3-1.8,7.2-6,7.2
		C114.6,422.8,112.8,420.1,112.8,415.8z M121.4,415.7c0-2.5-0.4-4.3-2.6-4.3c-2.3,0-2.6,1.8-2.6,4.3c0,2.5,0.4,4.3,2.6,4.3
		C121,420,121.4,418.2,121.4,415.7z"/>
	<path id="XMLID_245_" class="st1" d="M127.3,418.6h3c0.1,0.8,0.8,1.6,2.4,1.6c2.3,0,2.9-1.6,3-3.9c-0.9,0.8-2.2,1.4-3.8,1.4
		c-2.9,0-4.7-1.9-4.7-4.4c0-2.2,1.4-4.6,5.6-4.6c4,0,6,2.4,6,6.9c0,4.8-2,7.2-6.1,7.2C128.4,422.8,127.3,420.1,127.3,418.6z
		 M135.6,414.2c-0.2-2.1-1.1-3-2.8-3c-1.6,0-2.5,0.8-2.5,2c0,1.4,1.1,2,2.4,2C133.7,415.2,134.8,414.8,135.6,414.2z"/>
</g>
<g id="XMLID_34_">
	<path id="XMLID_237_" class="st1" d="M178.8,179.1h-4.6v1.9h-2.8v-4.4h11.2v2.3c-3.6,3.3-4.9,6.8-4.9,11.3h-3.3
		C174.4,185.1,175.7,182.1,178.8,179.1z"/>
	<path id="XMLID_239_" class="st1" d="M191.4,187.2h-7v-2.1l7.2-8.6h2.9v8.1h2.1v2.6h-2.1v2.9h-3.1V187.2z M188,184.6h3.4v-4.1
		L188,184.6z"/>
</g>
<g id="XMLID_33_">
	<path id="XMLID_231_" class="st1" d="M170.6,244.6c0-1.7,1-2.6,2.2-3.2c-1.1-0.5-1.9-1.5-1.9-3c0-2.8,2.6-4,5.6-4
		c3.1,0,5.5,1.2,5.5,3.9c0,1.5-0.8,2.5-1.9,3c1.2,0.5,2.3,1.5,2.3,3.2c0,2.7-2.8,4-6,4C173.2,248.6,170.6,247.3,170.6,244.6z
		 M179.2,244.3c0-1.3-1.1-1.7-2.6-1.7s-2.6,0.4-2.6,1.7c0,1.3,1.1,1.7,2.6,1.7S179.2,245.6,179.2,244.3z M178.9,238.7
		c0-1.2-0.9-1.6-2.3-1.6c-1.4,0-2.3,0.5-2.3,1.6c0,1.2,0.8,1.7,2.3,1.7C178,240.4,178.9,239.9,178.9,238.7z"/>
	<path id="XMLID_235_" class="st1" d="M185.2,244h3c0,1.6,1.1,2,2.5,2c1.7,0,2.6-0.6,2.6-1.7s-0.9-1.6-2.4-1.6h-1.1v-2.2h1.1
		c1.4,0,2.1-0.5,2.1-1.6c0-1-0.7-1.7-2.2-1.7c-1.3,0-2.4,0.5-2.4,2h-3c0-3.2,2.5-4.6,5.5-4.6c3.1,0,5.5,1.4,5.5,4
		c0,1.3-0.7,2.5-1.9,3c1.4,0.5,2.3,1.7,2.3,3.2c0,2.7-2.7,4-5.8,4C187.7,248.6,185.2,247.2,185.2,244z"/>
</g>
<g id="XMLID_32_">
	<path id="XMLID_226_" class="st1" d="M170.9,301.9h3c0.1,0.8,0.8,1.6,2.4,1.6c2.3,0,2.9-1.6,3-3.9c-0.9,0.8-2.2,1.4-3.8,1.4
		c-2.9,0-4.7-1.9-4.7-4.3c0-2.2,1.4-4.6,5.6-4.6c4,0,6,2.4,6,6.9c0,4.7-2,7.2-6.1,7.2C172.1,306,170.9,303.4,170.9,301.9z
		 M179.2,297.4c-0.2-2.1-1.1-3-2.8-3c-1.6,0-2.5,0.8-2.5,2c0,1.4,1.1,2,2.4,2C177.4,298.5,178.5,298,179.2,297.4z"/>
	<path id="XMLID_229_" class="st1" d="M185,303.8c0-2.1,1.3-3.5,2.9-4.2l2.7-1.3c1.8-0.8,2.3-1.4,2.3-2.3c0-1.1-0.9-1.5-2.1-1.5
		c-1.5,0-2.5,0.7-2.5,2.1h-3c0-3.1,2.2-4.8,5.7-4.8c3.3,0,5.3,1.5,5.3,4c0,2.3-1.7,3.6-3.6,4.4l-2.8,1.3c-1.2,0.6-1.6,0.9-1.6,1.4
		h8.2v2.7H185V303.8z"/>
</g>
<g id="XMLID_31_">
	<path id="XMLID_221_" class="st1" d="M170.6,357.3c0-4.4,1.8-7.1,6-7.1c4.2,0,6,2.7,6,7c0,4.3-1.8,7.2-6,7.2
		C172.4,364.3,170.6,361.7,170.6,357.3z M179.2,357.2c0-2.5-0.4-4.3-2.6-4.3c-2.3,0-2.6,1.8-2.6,4.3c0,2.5,0.4,4.3,2.6,4.3
		C178.8,361.5,179.2,359.7,179.2,357.2z"/>
	<path id="XMLID_224_" class="st1" d="M185.8,361.4h3.7v-7.6c-0.5,0.4-1.1,0.9-2.8,0.9h-0.9v-2.8h1.5c1.4,0,2.5-0.4,3-1.4h2.4v10.9
		h3v2.7h-9.9V361.4z"/>
</g>
<g id="XMLID_30_">
	<path id="XMLID_216_" class="st1" d="M171.7,419.8h3.7v-7.6c-0.5,0.4-1.1,0.9-2.8,0.9h-0.9v-2.8h1.5c1.4,0,2.5-0.4,3-1.4h2.4v10.9
		h3v2.7h-9.9V419.8z"/>
	<path id="XMLID_218_" class="st1" d="M184.7,415.8c0-4.4,1.8-7.1,6-7.1c4.2,0,6,2.7,6,7c0,4.3-1.8,7.2-6,7.2
		C186.6,422.8,184.7,420.1,184.7,415.8z M193.3,415.7c0-2.5-0.4-4.3-2.6-4.3c-2.3,0-2.6,1.8-2.6,4.3c0,2.5,0.4,4.3,2.6,4.3
		C193,420,193.3,418.2,193.3,415.7z"/>
</g>
<g id="XMLID_29_">
	<path id="XMLID_212_" class="st1" d="M236.6,179.1H232v1.9h-2.8v-4.4h11.2v2.3c-3.6,3.3-4.9,6.8-4.9,11.3h-3.3
		C232.2,185.1,233.5,182.1,236.6,179.1z"/>
	<path id="XMLID_214_" class="st1" d="M243.2,185.7h3c0,1.5,1,2.1,2.4,2.1c1.9,0,2.4-1,2.4-2.2c0-1.4-0.8-2.2-2.5-2.2
		c-1,0-1.9,0.3-2.5,0.6l-2.5-0.6l1-6.9h9.1v2.7h-6.5l-0.4,2.3c0.7-0.3,1.6-0.6,2.8-0.6c2.9,0,4.9,1.6,4.9,4.6c0,2.7-1.7,4.9-5.6,4.9
		C245.2,190.4,243.2,188.6,243.2,185.7z"/>
</g>
<g id="XMLID_28_">
	<path id="XMLID_205_" class="st1" d="M228.4,244.6c0-1.7,1-2.6,2.2-3.2c-1.1-0.5-1.9-1.5-1.9-3c0-2.8,2.6-4,5.6-4
		c3.1,0,5.5,1.2,5.5,3.9c0,1.5-0.8,2.5-1.9,3c1.2,0.5,2.3,1.5,2.3,3.2c0,2.7-2.8,4-6,4C231,248.6,228.4,247.3,228.4,244.6z
		 M237,244.3c0-1.3-1.1-1.7-2.6-1.7c-1.5,0-2.6,0.4-2.6,1.7c0,1.3,1.1,1.7,2.6,1.7C235.9,246,237,245.6,237,244.3z M236.7,238.7
		c0-1.2-0.9-1.6-2.3-1.6c-1.4,0-2.3,0.5-2.3,1.6c0,1.2,0.8,1.7,2.3,1.7C235.8,240.4,236.7,239.9,236.7,238.7z"/>
	<path id="XMLID_209_" class="st1" d="M249.2,245.4h-7v-2.1l7.2-8.6h2.9v8.1h2.1v2.6h-2.1v2.9h-3.1V245.4z M245.8,242.9h3.4v-4.1
		L245.8,242.9z"/>
</g>
<g id="XMLID_27_">
	<path id="XMLID_200_" class="st1" d="M228.7,301.9h3c0.1,0.8,0.8,1.6,2.4,1.6c2.3,0,2.9-1.6,3-3.9c-0.9,0.8-2.2,1.4-3.8,1.4
		c-2.9,0-4.7-1.9-4.7-4.3c0-2.2,1.4-4.6,5.6-4.6c4,0,6,2.4,6,6.9c0,4.7-2,7.2-6.1,7.2C229.9,306,228.7,303.4,228.7,301.9z
		 M237,297.4c-0.2-2.1-1.1-3-2.8-3c-1.6,0-2.5,0.8-2.5,2c0,1.4,1.1,2,2.4,2C235.2,298.5,236.3,298,237,297.4z"/>
	<path id="XMLID_203_" class="st1" d="M243,301.4h3c0,1.6,1.1,2,2.5,2c1.7,0,2.6-0.6,2.6-1.7s-0.9-1.6-2.4-1.6h-1.1v-2.2h1.1
		c1.4,0,2.1-0.5,2.1-1.6c0-1-0.7-1.7-2.2-1.7c-1.3,0-2.4,0.5-2.4,2h-3c0-3.2,2.5-4.6,5.5-4.6c3.1,0,5.5,1.4,5.5,4
		c0,1.3-0.7,2.5-1.9,3c1.4,0.5,2.3,1.7,2.3,3.2c0,2.7-2.7,3.9-5.8,3.9C245.5,306,243,304.6,243,301.4z"/>
</g>
<g id="XMLID_26_">
	<path id="XMLID_195_" class="st1" d="M228.4,357.3c0-4.4,1.8-7.1,6-7.1c4.2,0,6,2.7,6,7c0,4.3-1.8,7.2-6,7.2
		C230.2,364.3,228.4,361.7,228.4,357.3z M237,357.2c0-2.5-0.4-4.3-2.6-4.3c-2.3,0-2.6,1.8-2.6,4.3c0,2.5,0.4,4.3,2.6,4.3
		C236.6,361.5,237,359.7,237,357.2z"/>
	<path id="XMLID_198_" class="st1" d="M242.8,362.1c0-2.1,1.3-3.5,2.9-4.2l2.7-1.3c1.8-0.8,2.3-1.4,2.3-2.3c0-1.1-0.9-1.5-2.1-1.5
		c-1.5,0-2.5,0.7-2.5,2.1h-3c0-3.1,2.2-4.8,5.7-4.8c3.3,0,5.3,1.5,5.3,4c0,2.3-1.7,3.6-3.6,4.4l-2.8,1.3c-1.2,0.6-1.6,0.9-1.6,1.4
		h8.2v2.7h-11.5V362.1z"/>
</g>
<g id="XMLID_25_">
	<path id="XMLID_191_" class="st1" d="M229.5,419.8h3.7v-7.6c-0.5,0.4-1.1,0.9-2.8,0.9h-0.9v-2.8h1.5c1.4,0,2.5-0.4,3-1.4h2.4v10.9
		h3v2.7h-9.9V419.8z"/>
	<path id="XMLID_193_" class="st1" d="M243.6,419.8h3.7v-7.6c-0.5,0.4-1.1,0.9-2.8,0.9h-0.9v-2.8h1.5c1.4,0,2.5-0.4,3-1.4h2.4v10.9
		h3v2.7h-9.9V419.8z"/>
</g>
<g id="XMLID_24_">
	<path id="XMLID_186_" class="st1" d="M294.4,179.1h-4.6v1.9H287v-4.4h11.2v2.3c-3.6,3.3-4.9,6.8-4.9,11.3H290
		C290,185.1,291.3,182.1,294.4,179.1z"/>
	<path id="XMLID_188_" class="st1" d="M300.4,183.5c0-4.8,2-7.2,6.1-7.2c4.2,0,5.4,2.6,5.4,4.1h-3c-0.1-0.8-0.8-1.6-2.4-1.6
		c-2.3,0-2.9,1.6-3,3.9c0.9-0.8,2.2-1.4,3.8-1.4c2.9,0,4.7,1.9,4.7,4.4c0,2.2-1.4,4.6-5.6,4.6C302.4,190.4,300.4,188,300.4,183.5z
		 M308.9,185.8c0-1.4-1.1-2-2.4-2c-1.1,0-2.2,0.4-2.9,1c0.2,2.1,1,3,2.8,3C308.1,187.8,308.9,187,308.9,185.8z"/>
</g>
<g id="XMLID_23_">
	<path id="XMLID_180_" class="st1" d="M286.2,244.6c0-1.7,1-2.6,2.2-3.2c-1.1-0.5-1.9-1.5-1.9-3c0-2.8,2.6-4,5.6-4
		c3.1,0,5.5,1.2,5.5,3.9c0,1.5-0.8,2.5-1.9,3c1.2,0.5,2.3,1.5,2.3,3.2c0,2.7-2.8,4-6,4C288.8,248.6,286.2,247.3,286.2,244.6z
		 M294.8,244.3c0-1.3-1.1-1.7-2.6-1.7c-1.5,0-2.6,0.4-2.6,1.7c0,1.3,1.1,1.7,2.6,1.7C293.7,246,294.8,245.6,294.8,244.3z
		 M294.5,238.7c0-1.2-0.9-1.6-2.3-1.6c-1.4,0-2.3,0.5-2.3,1.6c0,1.2,0.8,1.7,2.3,1.7C293.6,240.4,294.5,239.9,294.5,238.7z"/>
	<path id="XMLID_184_" class="st1" d="M301,243.9h3c0,1.5,1,2.1,2.4,2.1c1.9,0,2.4-1,2.4-2.2c0-1.4-0.8-2.2-2.5-2.2
		c-1,0-1.9,0.3-2.5,0.6l-2.5-0.6l1-6.9h9.1v2.7h-6.5l-0.4,2.3c0.7-0.3,1.6-0.6,2.8-0.6c2.9,0,4.9,1.6,4.9,4.6c0,2.7-1.7,4.9-5.6,4.9
		C303,248.6,301,246.8,301,243.9z"/>
</g>
<g id="XMLID_22_">
	<path id="XMLID_174_" class="st1" d="M286.5,301.9h3c0.1,0.8,0.8,1.6,2.4,1.6c2.3,0,2.9-1.6,3-3.9c-0.9,0.8-2.2,1.4-3.8,1.4
		c-2.9,0-4.7-1.9-4.7-4.3c0-2.2,1.4-4.6,5.6-4.6c4,0,6,2.4,6,6.9c0,4.7-2,7.2-6.1,7.2C287.7,306,286.5,303.4,286.5,301.9z
		 M294.8,297.4c-0.2-2.1-1.1-3-2.8-3c-1.6,0-2.5,0.8-2.5,2c0,1.4,1.1,2,2.4,2C293,298.5,294.1,298,294.8,297.4z"/>
	<path id="XMLID_177_" class="st1" d="M307,302.8h-7v-2.1l7.2-8.6h2.9v8.1h2.1v2.6h-2.1v2.9H307V302.8z M303.6,300.3h3.4v-4.1
		L303.6,300.3z"/>
</g>
<g id="XMLID_21_">
	<path id="XMLID_169_" class="st1" d="M286.2,357.3c0-4.4,1.8-7.1,6-7.1c4.2,0,6,2.7,6,7c0,4.3-1.8,7.2-6,7.2
		C288,364.3,286.2,361.7,286.2,357.3z M294.8,357.2c0-2.5-0.4-4.3-2.6-4.3c-2.3,0-2.6,1.8-2.6,4.3c0,2.5,0.4,4.3,2.6,4.3
		C294.4,361.5,294.8,359.7,294.8,357.2z"/>
	<path id="XMLID_172_" class="st1" d="M300.8,359.7h3c0,1.6,1.1,2,2.5,2c1.7,0,2.6-0.6,2.6-1.7s-0.9-1.6-2.4-1.6h-1.1v-2.2h1.1
		c1.4,0,2.1-0.5,2.1-1.6c0-1-0.7-1.7-2.2-1.7c-1.3,0-2.4,0.5-2.4,2h-3c0-3.2,2.5-4.6,5.5-4.6c3.1,0,5.5,1.4,5.5,4
		c0,1.3-0.7,2.5-1.9,3c1.4,0.5,2.3,1.7,2.3,3.2c0,2.7-2.7,4-5.8,4C303.3,364.3,300.8,362.9,300.8,359.7z"/>
</g>
<g id="XMLID_20_">
	<path id="XMLID_165_" class="st1" d="M287.3,419.8h3.7v-7.6c-0.5,0.4-1.1,0.9-2.8,0.9h-0.9v-2.8h1.5c1.4,0,2.5-0.4,3-1.4h2.4v10.9
		h3v2.7h-9.9V419.8z"/>
	<path id="XMLID_167_" class="st1" d="M300.6,420.6c0-2.1,1.3-3.5,2.9-4.2l2.7-1.3c1.8-0.8,2.3-1.4,2.3-2.3c0-1.1-0.9-1.5-2.1-1.5
		c-1.5,0-2.5,0.7-2.5,2.1h-3c0-3.1,2.2-4.8,5.7-4.8c3.3,0,5.3,1.5,5.3,4c0,2.3-1.7,3.6-3.6,4.4l-2.8,1.3c-1.2,0.6-1.6,0.9-1.6,1.4
		h8.2v2.7h-11.5V420.6z"/>
</g>
<g id="XMLID_19_">
	<path id="XMLID_161_" class="st1" d="M352.2,179.1h-4.6v1.9h-2.8v-4.4H356v2.3c-3.6,3.3-4.9,6.8-4.9,11.3h-3.3
		C347.8,185.1,349.1,182.1,352.2,179.1z"/>
	<path id="XMLID_163_" class="st1" d="M366.3,179.1h-4.6v1.9h-2.8v-4.4h11.2v2.3c-3.6,3.3-4.9,6.8-4.9,11.3h-3.3
		C361.9,185.1,363.2,182.1,366.3,179.1z"/>
</g>
<g id="XMLID_18_">
	<path id="XMLID_154_" class="st1" d="M344,244.6c0-1.7,1-2.6,2.2-3.2c-1.1-0.5-1.9-1.5-1.9-3c0-2.8,2.6-4,5.6-4
		c3.1,0,5.5,1.2,5.5,3.9c0,1.5-0.8,2.5-1.9,3c1.2,0.5,2.3,1.5,2.3,3.2c0,2.7-2.8,4-6,4C346.6,248.6,344,247.3,344,244.6z
		 M352.6,244.3c0-1.3-1.1-1.7-2.6-1.7c-1.5,0-2.6,0.4-2.6,1.7c0,1.3,1.1,1.7,2.6,1.7C351.5,246,352.6,245.6,352.6,244.3z
		 M352.3,238.7c0-1.2-0.9-1.6-2.3-1.6c-1.4,0-2.3,0.5-2.3,1.6c0,1.2,0.8,1.7,2.3,1.7C351.4,240.4,352.3,239.9,352.3,238.7z"/>
	<path id="XMLID_158_" class="st1" d="M358.2,241.7c0-4.8,2-7.2,6.1-7.2c4.2,0,5.4,2.6,5.4,4.1h-3c-0.1-0.8-0.8-1.6-2.3-1.6
		c-2.3,0-2.9,1.6-3,3.9c0.9-0.8,2.2-1.4,3.8-1.4c2.9,0,4.7,1.9,4.7,4.4c0,2.2-1.4,4.6-5.6,4.6C360.2,248.6,358.2,246.2,358.2,241.7z
		 M366.7,244c0-1.4-1.1-2-2.4-2c-1.1,0-2.2,0.4-2.9,1c0.2,2.1,1,3,2.8,3C365.9,246,366.7,245.3,366.7,244z"/>
</g>
<g id="XMLID_17_">
	<path id="XMLID_149_" class="st1" d="M344.3,301.9h3c0.1,0.8,0.8,1.6,2.4,1.6c2.3,0,2.9-1.6,3-3.9c-0.9,0.8-2.2,1.4-3.8,1.4
		c-2.9,0-4.7-1.9-4.7-4.3c0-2.2,1.4-4.6,5.6-4.6c4,0,6,2.4,6,6.9c0,4.7-2,7.2-6.1,7.2C345.5,306,344.3,303.4,344.3,301.9z
		 M352.6,297.4c-0.2-2.1-1.1-3-2.8-3c-1.6,0-2.5,0.8-2.5,2c0,1.4,1.1,2,2.4,2C350.8,298.5,351.9,298,352.6,297.4z"/>
	<path id="XMLID_152_" class="st1" d="M358.8,301.3h3c0,1.5,1,2.1,2.4,2.1c1.9,0,2.4-1,2.4-2.2c0-1.4-0.8-2.2-2.5-2.2
		c-1,0-1.9,0.3-2.5,0.6l-2.5-0.6l1-6.9h9.1v2.7h-6.5l-0.4,2.3c0.7-0.3,1.6-0.6,2.8-0.6c2.9,0,4.9,1.6,4.9,4.6c0,2.7-1.7,4.9-5.6,4.9
		C360.8,306,358.8,304.2,358.8,301.3z"/>
</g>
<g id="XMLID_16_">
	<path id="XMLID_143_" class="st1" d="M344,357.3c0-4.4,1.8-7.1,6-7.1c4.2,0,6,2.7,6,7c0,4.3-1.8,7.2-6,7.2
		C345.8,364.3,344,361.7,344,357.3z M352.6,357.2c0-2.5-0.4-4.3-2.6-4.3c-2.3,0-2.6,1.8-2.6,4.3c0,2.5,0.4,4.3,2.6,4.3
		C352.2,361.5,352.6,359.7,352.6,357.2z"/>
	<path id="XMLID_146_" class="st1" d="M364.8,361.1h-7V359l7.2-8.6h2.9v8.1h2.1v2.6h-2.1v2.9h-3.1V361.1z M361.4,358.5h3.4v-4.1
		L361.4,358.5z"/>
</g>
<g id="XMLID_15_">
	<path id="XMLID_139_" class="st1" d="M345.1,419.8h3.7v-7.6c-0.5,0.4-1.1,0.9-2.8,0.9h-0.9v-2.8h1.5c1.4,0,2.5-0.4,3-1.4h2.3v10.9
		h3v2.7h-9.9V419.8z"/>
	<path id="XMLID_141_" class="st1" d="M358.6,418.2h3c0,1.6,1.1,2,2.5,2c1.7,0,2.6-0.6,2.6-1.7s-0.9-1.6-2.4-1.6h-1.1v-2.2h1.1
		c1.4,0,2.1-0.5,2.1-1.6c0-1-0.7-1.7-2.2-1.7c-1.3,0-2.4,0.5-2.4,2h-3c0-3.2,2.5-4.6,5.5-4.6c3.1,0,5.5,1.4,5.5,4
		c0,1.3-0.7,2.5-1.9,3c1.4,0.5,2.3,1.7,2.3,3.2c0,2.7-2.7,4-5.8,4C361.1,422.8,358.6,421.3,358.6,418.2z"/>
</g>
<g id="XMLID_14_">
	<path id="XMLID_133_" class="st1" d="M410,179.1h-4.6v1.9h-2.8v-4.4h11.2v2.3c-3.6,3.3-4.9,6.8-4.9,11.3h-3.3
		C405.6,185.1,406.9,182.1,410,179.1z"/>
	<path id="XMLID_135_" class="st1" d="M415.9,186.4c0-1.7,1-2.6,2.2-3.2c-1.1-0.5-1.9-1.5-1.9-3c0-2.8,2.6-4,5.6-4
		c3.1,0,5.5,1.2,5.5,3.9c0,1.5-0.8,2.5-1.9,3c1.2,0.5,2.3,1.5,2.3,3.2c0,2.7-2.8,4-6,4C418.5,190.4,415.9,189.1,415.9,186.4z
		 M424.5,186.1c0-1.3-1.1-1.7-2.6-1.7s-2.6,0.4-2.6,1.7c0,1.3,1.1,1.7,2.6,1.7S424.5,187.4,424.5,186.1z M424.2,180.5
		c0-1.2-0.9-1.6-2.3-1.6c-1.4,0-2.3,0.5-2.3,1.6c0,1.2,0.8,1.7,2.3,1.7C423.3,182.2,424.2,181.7,424.2,180.5z"/>
</g>
<g id="XMLID_13_">
	<path id="XMLID_127_" class="st1" d="M401.8,244.6c0-1.7,1-2.6,2.2-3.2c-1.1-0.5-1.9-1.5-1.9-3c0-2.8,2.6-4,5.6-4
		c3.1,0,5.5,1.2,5.5,3.9c0,1.5-0.8,2.5-1.9,3c1.2,0.5,2.3,1.5,2.3,3.2c0,2.7-2.8,4-6,4C404.4,248.6,401.8,247.3,401.8,244.6z
		 M410.4,244.3c0-1.3-1.1-1.7-2.6-1.7s-2.6,0.4-2.6,1.7c0,1.3,1.1,1.7,2.6,1.7S410.4,245.6,410.4,244.3z M410.1,238.7
		c0-1.2-0.9-1.6-2.3-1.6c-1.4,0-2.3,0.5-2.3,1.6c0,1.2,0.8,1.7,2.3,1.7C409.2,240.4,410.1,239.9,410.1,238.7z"/>
	<path id="XMLID_131_" class="st1" d="M424.1,237.3h-4.6v1.9h-2.8v-4.4h11.2v2.3c-3.6,3.3-4.9,6.8-4.9,11.3h-3.3
		C419.7,243.3,421,240.3,424.1,237.3z"/>
</g>
<g id="XMLID_12_">
	<path id="XMLID_121_" class="st1" d="M402.1,301.9h3c0.1,0.8,0.8,1.6,2.3,1.6c2.3,0,2.9-1.6,3-3.9c-0.9,0.8-2.2,1.4-3.8,1.4
		c-2.9,0-4.7-1.9-4.7-4.3c0-2.2,1.4-4.6,5.6-4.6c4,0,6,2.4,6,6.9c0,4.7-2,7.2-6.1,7.2C403.3,306,402.1,303.4,402.1,301.9z
		 M410.4,297.4c-0.2-2.1-1.1-3-2.8-3c-1.6,0-2.5,0.8-2.5,2c0,1.4,1.1,2,2.4,2C408.6,298.5,409.7,298,410.4,297.4z"/>
	<path id="XMLID_124_" class="st1" d="M416,299.1c0-4.8,2-7.2,6.1-7.2c4.2,0,5.4,2.6,5.4,4.1h-3c-0.1-0.8-0.8-1.6-2.4-1.6
		c-2.3,0-2.9,1.6-3,3.9c0.9-0.8,2.2-1.4,3.8-1.4c2.9,0,4.7,1.9,4.7,4.4c0,2.2-1.4,4.6-5.6,4.6C418,306,416,303.6,416,299.1z
		 M424.5,301.4c0-1.4-1.1-2-2.4-2c-1.1,0-2.2,0.4-2.9,1c0.2,2.1,1,3,2.8,3C423.7,303.4,424.5,302.7,424.5,301.4z"/>
</g>
<g id="XMLID_11_">
	<path id="XMLID_116_" class="st1" d="M401.8,357.3c0-4.4,1.8-7.1,6-7.1c4.2,0,6,2.7,6,7c0,4.3-1.8,7.2-6,7.2
		C403.6,364.3,401.8,361.7,401.8,357.3z M410.4,357.2c0-2.5-0.4-4.3-2.6-4.3c-2.3,0-2.6,1.8-2.6,4.3c0,2.5,0.4,4.3,2.6,4.3
		C410,361.5,410.4,359.7,410.4,357.2z"/>
	<path id="XMLID_119_" class="st1" d="M416.6,359.6h3c0,1.5,1,2.1,2.4,2.1c1.9,0,2.4-1,2.4-2.2c0-1.4-0.8-2.2-2.5-2.2
		c-1,0-1.9,0.3-2.5,0.6l-2.5-0.6l1-6.9h9.1v2.7h-6.5l-0.4,2.3c0.7-0.3,1.6-0.6,2.8-0.6c2.9,0,4.9,1.6,4.9,4.6c0,2.7-1.7,4.9-5.6,4.9
		C418.6,364.3,416.6,362.5,416.6,359.6z"/>
</g>
<g id="XMLID_10_">
	<path id="XMLID_111_" class="st1" d="M402.9,419.8h3.7v-7.6c-0.5,0.4-1.1,0.9-2.8,0.9h-0.9v-2.8h1.5c1.4,0,2.5-0.4,3-1.4h2.3v10.9
		h3v2.7h-9.9V419.8z"/>
	<path id="XMLID_113_" class="st1" d="M422.6,419.6h-7v-2.1l7.2-8.6h2.9v8.1h2.1v2.6h-2.1v2.9h-3.1V419.6z M419.2,417h3.4v-4.1
		L419.2,417z"/>
</g>
<g id="XMLID_9_">
	<path id="XMLID_106_" class="st1" d="M467.8,179.1h-4.6v1.9h-2.8v-4.4h11.2v2.3c-3.6,3.3-4.9,6.8-4.9,11.3h-3.3
		C463.4,185.1,464.7,182.1,467.8,179.1z"/>
	<path id="XMLID_108_" class="st1" d="M474,186.2h3c0.1,0.8,0.8,1.6,2.4,1.6c2.3,0,2.9-1.6,3-3.9c-0.9,0.8-2.2,1.4-3.8,1.4
		c-2.9,0-4.7-1.9-4.7-4.4c0-2.2,1.4-4.6,5.6-4.6c4,0,6,2.4,6,6.9c0,4.7-2,7.2-6.1,7.2C475.2,190.4,474,187.8,474,186.2z
		 M482.3,181.8c-0.2-2.1-1.1-3-2.8-3c-1.6,0-2.5,0.8-2.5,2c0,1.4,1.1,2,2.4,2C480.5,182.8,481.6,182.4,482.3,181.8z"/>
</g>
<g id="XMLID_8_">
	<path id="XMLID_98_" class="st1" d="M459.6,244.6c0-1.7,1-2.6,2.2-3.2c-1.1-0.5-1.9-1.5-1.9-3c0-2.8,2.6-4,5.6-4
		c3.1,0,5.5,1.2,5.5,3.9c0,1.5-0.8,2.5-1.9,3c1.2,0.5,2.3,1.5,2.3,3.2c0,2.7-2.8,4-6,4C462.2,248.6,459.6,247.3,459.6,244.6z
		 M468.2,244.3c0-1.3-1.1-1.7-2.6-1.7s-2.6,0.4-2.6,1.7c0,1.3,1.1,1.7,2.6,1.7S468.2,245.6,468.2,244.3z M467.9,238.7
		c0-1.2-0.9-1.6-2.3-1.6c-1.4,0-2.3,0.5-2.3,1.6c0,1.2,0.8,1.7,2.3,1.7C467,240.4,467.9,239.9,467.9,238.7z"/>
	<path id="XMLID_102_" class="st1" d="M473.7,244.6c0-1.7,1-2.6,2.2-3.2c-1.1-0.5-1.9-1.5-1.9-3c0-2.8,2.6-4,5.6-4
		c3.1,0,5.5,1.2,5.5,3.9c0,1.5-0.8,2.5-1.9,3c1.2,0.5,2.3,1.5,2.3,3.2c0,2.7-2.8,4-6,4C476.3,248.6,473.7,247.3,473.7,244.6z
		 M482.3,244.3c0-1.3-1.1-1.7-2.6-1.7s-2.6,0.4-2.6,1.7c0,1.3,1.1,1.7,2.6,1.7S482.3,245.6,482.3,244.3z M482,238.7
		c0-1.2-0.9-1.6-2.3-1.6c-1.4,0-2.3,0.5-2.3,1.6c0,1.2,0.8,1.7,2.3,1.7C481.1,240.4,482,239.9,482,238.7z"/>
</g>
<g id="XMLID_7_">
	<path id="XMLID_93_" class="st1" d="M459.9,301.9h3c0.1,0.8,0.8,1.6,2.4,1.6c2.3,0,2.9-1.6,3-3.9c-0.9,0.8-2.2,1.4-3.8,1.4
		c-2.9,0-4.7-1.9-4.7-4.3c0-2.2,1.4-4.6,5.6-4.6c4,0,6,2.4,6,6.9c0,4.7-2,7.2-6.1,7.2C461.1,306,459.9,303.4,459.9,301.9z
		 M468.2,297.4c-0.2-2.1-1.1-3-2.8-3c-1.6,0-2.5,0.8-2.5,2c0,1.4,1.1,2,2.4,2C466.4,298.5,467.5,298,468.2,297.4z"/>
	<path id="XMLID_96_" class="st1" d="M481.9,294.7h-4.6v1.9h-2.8v-4.4h11.2v2.3c-3.6,3.3-4.9,6.8-4.9,11.3h-3.3
		C477.5,300.8,478.8,297.8,481.9,294.7z"/>
</g>
<g id="XMLID_6_">
	<path id="XMLID_87_" class="st1" d="M459.6,357.3c0-4.4,1.8-7.1,6-7.1c4.2,0,6,2.7,6,7c0,4.3-1.8,7.2-6,7.2
		C461.4,364.3,459.6,361.7,459.6,357.3z M468.2,357.2c0-2.5-0.4-4.3-2.6-4.3c-2.3,0-2.6,1.8-2.6,4.3c0,2.5,0.4,4.3,2.6,4.3
		C467.8,361.5,468.2,359.7,468.2,357.2z"/>
	<path id="XMLID_90_" class="st1" d="M473.8,357.4c0-4.8,2-7.2,6.1-7.2c4.2,0,5.4,2.6,5.4,4.1h-3c-0.1-0.8-0.8-1.6-2.3-1.6
		c-2.3,0-2.9,1.6-3,3.9c0.9-0.8,2.2-1.4,3.8-1.4c2.9,0,4.7,1.9,4.7,4.4c0,2.2-1.4,4.6-5.6,4.6C475.8,364.3,473.8,361.9,473.8,357.4z
		 M482.3,359.7c0-1.4-1.1-2-2.4-2c-1.1,0-2.2,0.4-2.9,1c0.2,2.1,1,3,2.8,3C481.4,361.7,482.3,360.9,482.3,359.7z"/>
</g>
<g id="XMLID_5_">
	<path id="XMLID_83_" class="st1" d="M460.6,419.8h3.7v-7.6c-0.5,0.4-1.1,0.9-2.8,0.9h-0.9v-2.8h1.5c1.4,0,2.5-0.4,3-1.4h2.3v10.9h3
		v2.7h-9.9V419.8z"/>
	<path id="XMLID_85_" class="st1" d="M474.4,418.1h3c0,1.5,1,2.1,2.4,2.1c1.9,0,2.4-1,2.4-2.2c0-1.4-0.8-2.2-2.5-2.2
		c-1,0-1.9,0.3-2.5,0.6l-2.5-0.6l1-6.9h9.1v2.7h-6.5l-0.4,2.3c0.7-0.3,1.6-0.6,2.8-0.6c2.9,0,4.9,1.6,4.9,4.6c0,2.7-1.7,4.9-5.6,4.9
		C476.4,422.8,474.4,421,474.4,418.1z"/>
</g>
<g id="XMLID_4_">
	<path id="XMLID_76_" class="st1" d="M517.4,186.4c0-1.7,1-2.6,2.2-3.2c-1.1-0.5-1.9-1.5-1.9-3c0-2.8,2.6-4,5.6-4
		c3.1,0,5.5,1.2,5.5,3.9c0,1.5-0.8,2.5-1.9,3c1.2,0.5,2.3,1.5,2.3,3.2c0,2.7-2.8,4-6,4C520,190.4,517.4,189.1,517.4,186.4z
		 M525.9,186.1c0-1.3-1.1-1.7-2.6-1.7c-1.5,0-2.6,0.4-2.6,1.7c0,1.3,1.1,1.7,2.6,1.7C524.8,187.8,525.9,187.4,525.9,186.1z
		 M525.7,180.5c0-1.2-0.9-1.6-2.3-1.6c-1.4,0-2.3,0.5-2.3,1.6c0,1.2,0.8,1.7,2.3,1.7C524.8,182.2,525.7,181.7,525.7,180.5z"/>
	<path id="XMLID_80_" class="st1" d="M531.5,183.4c0-4.4,1.8-7.1,6-7.1c4.2,0,6,2.7,6,7s-1.8,7.2-6,7.2
		C533.3,190.4,531.5,187.8,531.5,183.4z M540.1,183.3c0-2.5-0.4-4.3-2.6-4.3c-2.3,0-2.6,1.8-2.6,4.3c0,2.5,0.4,4.3,2.6,4.3
		C539.7,187.6,540.1,185.8,540.1,183.3z"/>
</g>
<g id="XMLID_3_">
	<path id="XMLID_69_" class="st1" d="M517.4,244.6c0-1.7,1-2.6,2.2-3.2c-1.1-0.5-1.9-1.5-1.9-3c0-2.8,2.6-4,5.6-4
		c3.1,0,5.5,1.2,5.5,3.9c0,1.5-0.8,2.5-1.9,3c1.2,0.5,2.3,1.5,2.3,3.2c0,2.7-2.8,4-6,4C520,248.6,517.4,247.3,517.4,244.6z
		 M525.9,244.3c0-1.3-1.1-1.7-2.6-1.7c-1.5,0-2.6,0.4-2.6,1.7c0,1.3,1.1,1.7,2.6,1.7C524.8,246,525.9,245.6,525.9,244.3z
		 M525.7,238.7c0-1.2-0.9-1.6-2.3-1.6c-1.4,0-2.3,0.5-2.3,1.6c0,1.2,0.8,1.7,2.3,1.7C524.8,240.4,525.7,239.9,525.7,238.7z"/>
	<path id="XMLID_73_" class="st1" d="M531.8,244.5h3c0.1,0.8,0.8,1.6,2.3,1.6c2.3,0,2.9-1.6,3-3.9c-0.9,0.8-2.2,1.4-3.8,1.4
		c-2.9,0-4.7-1.9-4.7-4.4c0-2.2,1.4-4.6,5.6-4.6c4,0,6,2.4,6,6.9c0,4.7-2,7.2-6.1,7.2C533,248.6,531.8,246,531.8,244.5z M540.1,240
		c-0.2-2.1-1.1-3-2.8-3c-1.6,0-2.5,0.8-2.5,2c0,1.4,1.1,2,2.4,2C538.3,241,539.4,240.6,540.1,240z"/>
</g>
<g id="XMLID_2_">
	<path id="XMLID_62_" class="st1" d="M517.7,301.9h3c0.1,0.8,0.8,1.6,2.3,1.6c2.3,0,2.9-1.6,3-3.9c-0.9,0.8-2.2,1.4-3.8,1.4
		c-2.9,0-4.7-1.9-4.7-4.3c0-2.2,1.4-4.6,5.6-4.6c4,0,6,2.4,6,6.9c0,4.7-2,7.2-6.1,7.2C518.9,306,517.7,303.4,517.7,301.9z
		 M526,297.4c-0.2-2.1-1.1-3-2.8-3c-1.6,0-2.5,0.8-2.5,2c0,1.4,1.1,2,2.4,2C524.2,298.5,525.3,298,526,297.4z"/>
	<path id="XMLID_65_" class="st1" d="M531.5,302c0-1.7,1-2.6,2.2-3.2c-1.1-0.5-1.9-1.5-1.9-3c0-2.8,2.6-4,5.6-4
		c3.1,0,5.5,1.2,5.5,3.9c0,1.5-0.8,2.5-1.9,3c1.2,0.5,2.3,1.5,2.3,3.2c0,2.7-2.8,4-6,4C534.1,306,531.5,304.7,531.5,302z
		 M540.1,301.7c0-1.3-1.1-1.7-2.6-1.7c-1.5,0-2.6,0.4-2.6,1.7c0,1.3,1.1,1.7,2.6,1.7C539,303.4,540.1,303,540.1,301.7z M539.8,296.2
		c0-1.2-0.9-1.6-2.3-1.6c-1.4,0-2.3,0.5-2.3,1.6c0,1.2,0.8,1.7,2.3,1.7C538.9,297.8,539.8,297.3,539.8,296.2z"/>
</g>
<g id="XMLID_1_">
	<path id="XMLID_57_" class="st1" d="M517.4,357.3c0-4.4,1.8-7.1,6-7.1c4.2,0,6,2.7,6,7c0,4.3-1.8,7.2-6,7.2
		C519.2,364.3,517.4,361.7,517.4,357.3z M526,357.2c0-2.5-0.4-4.3-2.6-4.3c-2.3,0-2.6,1.8-2.6,4.3c0,2.5,0.4,4.3,2.6,4.3
		C525.6,361.5,526,359.7,526,357.2z"/>
	<path id="XMLID_60_" class="st1" d="M539.7,353h-4.6v1.9h-2.8v-4.4h11.2v2.3c-3.6,3.3-4.9,6.8-4.9,11.3h-3.3
		C535.3,359,536.6,356,539.7,353z"/>
</g>
<g id="XMLID_51_">
	<path id="XMLID_52_" class="st1" d="M518.4,419.8h3.7v-7.6c-0.5,0.4-1.1,0.9-2.8,0.9h-0.9v-2.8h1.5c1.4,0,2.5-0.4,3-1.4h2.3v10.9h3
		v2.7h-9.9V419.8z"/>
	<path id="XMLID_54_" class="st1" d="M531.6,415.9c0-4.8,2-7.2,6.1-7.2c4.2,0,5.4,2.6,5.4,4.1h-3c-0.1-0.8-0.8-1.6-2.4-1.6
		c-2.3,0-2.9,1.6-3,3.9c0.9-0.8,2.2-1.4,3.8-1.4c2.9,0,4.7,1.9,4.7,4.4c0,2.2-1.4,4.6-5.6,4.6C533.6,422.8,531.6,420.4,531.6,415.9z
		 M540.1,418.1c0-1.4-1.1-2-2.4-2c-1.1,0-2.2,0.4-2.9,1c0.2,2.1,1,3,2.8,3C539.2,420.2,540.1,419.4,540.1,418.1z"/>
</g>
</svg>
