<?xml version="1.0" encoding="utf-8"?>
<!-- Generator: Adobe Illustrator 19.0.0, SVG Export Plug-In . SVG Version: 6.00 Build 0)  -->
<svg version="1.1" xmlns="http://www.w3.org/2000/svg" xmlns:xlink="http://www.w3.org/1999/xlink" x="0px" y="0px"
	 viewBox="0 0 600 600" style="enable-background:new 0 0 600 600;" xml:space="preserve">
<style type="text/css">
	.st0{fill:#FFFFFF;}
	.st1{opacity:0.3;fill:#1D1D1B;}
	.st2{fill:#3C3C3B;}
	.st3{fill:#FFFFFF;stroke:#FFFFFF;stroke-width:15;stroke-linejoin:round;stroke-miterlimit:10;}
	.st4{fill:none;stroke:#000000;stroke-width:21;stroke-miterlimit:10;}
	.st5{opacity:0.2;fill:#1D1D1B;}
</style>
<g id="Layer_1">
	<circle class="st0" cx="321.7" cy="293.6" r="190.4"/>
	<path class="st1" d="M256.1,245.8l-15.5-71.2l2.8-3.5l55.3,56.3"/>
	<path class="st2" d="M256.2,243.7c1.4-12.3,13.3-22.4,26.7-22.4s23,10,21.6,22.4c-1.4,12.3-13.3,22.4-26.7,22.4
		S254.8,256,256.2,243.7z"/>
	<g>
		<path class="st3" d="M364.8,108.1L364.8,108.1C364.8,108,364.8,108,364.8,108.1z"/>
		<path class="st3" d="M364.8,108.1L364.8,108.1C364.8,108.1,364.8,108.1,364.8,108.1z"/>
		<path class="st3" d="M367.8,107.7l0-0.1c-12.8-54.7-31.3-84.7-52.3-85.3c-20.6-0.6-40.7,27.9-56.4,80.3
			c-15.6,51.8-25.3,120.9-27.3,194.6c-0.7,26.1-0.5,51.6,0.7,76l0.6,11.5c2.5,40.3,7.6,77.3,15.1,108.3
			c12.8,53.2,31.2,82.8,51.9,83.3c0.2,0,0.4,0,0.6,0c22.5,0,44.1-33.5,60.1-95.5l-3.3,0.7c-15.7,59.9-36.3,92.4-57.3,91.7
			c-18.9-0.5-36.7-30.1-49-81c-7.4-30.7-12.4-67.3-14.9-107.1l-0.7-12c-1.2-24.4-1.5-49.9-0.7-76c1.8-64.9,8.6-132,27.2-193.8
			c14.9-49.7,34.2-78.2,52.9-78.2c0.2,0,0.3,0,0.5,0c19.1,0.5,36.8,29.5,49.1,81.6L367.8,107.7z"/>
	</g>
	<g>
		<path d="M107.9,326.1c18.4,6.3,40.8,11.2,65.7,14.3v16.2l33.8-22.1l-33.8-22.1v16c-25.4-3.2-52.1-9.5-70.7-16"/>
	</g>
	<path d="M201.5,172.3c0,5.7,2.2,10.4,5.1,10.8v0.1h73.5v0c3-0.1,5.5-4.9,5.5-10.9c0-6-2.5-10.8-5.5-10.9v0h-73.5v0.1
		C203.7,161.9,201.5,166.6,201.5,172.3z"/>
	<g>
		<path class="st0" d="M119.1,317c-20.6-7.6-34.2-17.5-37.3-28.4l0-0.1c3-10.6,18.9-21.7,38.6-29.4l1.2-10
			c-23.4,8.8-40.5,22-40.5,34.7l0,9.2c0,0.1,0,0.1,0,0.2c0,0.1,0,0.2,0,0.3l0,0.5h0c0.6,12.6,15,24.1,38.3,32.6L119.1,317z"/>
		<path class="st0" d="M123.9,331.7l-5.5-2.2c-23.9-8.8-37.6-19.9-40-32.4l0,0.2l-0.4-3.3l0-1.2l0-9c0-13.5,15.9-27.6,42.5-37.6
			l6.2-2.2l-3.5,17.4l-1.7,0.7c-19.4,7.5-33.6,18-36.6,26.7c2.7,8.7,15.3,18,35.2,25.4l1.9,0.7L123.9,331.7z M87.6,302.8
			c4.8,6.9,14.6,13.5,28.5,19.2l-0.1-2.8C103.6,314.4,94.1,308.8,87.6,302.8z M117.9,253.9c-14.4,6-25.1,13.4-30.2,20.7
			c6.9-6.4,17.1-12.6,29.9-17.7L117.9,253.9z"/>
	</g>
	<path class="st4" d="M258.6,108.1c-14.1,51.9-23.7,122.2-25.7,192.8c-0.8,26.9-0.5,53.3,0.8,78.5l0.7,11.9
		c1.9,30.5,5.2,59.1,9.9,84.9"/>
	<g>
		<path d="M320.6,103.2c105.1,0,190.4,85.2,190.4,190.4S425.7,484,320.6,484s-190.4-85.2-190.4-190.4S215.4,103.2,320.6,103.2
			 M320.6,87.2c-27.9,0-54.9,5.5-80.3,16.2c-24.6,10.4-46.6,25.3-65.6,44.2s-33.8,41-44.2,65.6c-10.8,25.5-16.2,52.5-16.2,80.3
			s5.5,54.9,16.2,80.3c10.4,24.6,25.3,46.6,44.2,65.6c18.9,18.9,41,33.8,65.6,44.2c25.5,10.8,52.5,16.2,80.3,16.2
			s54.9-5.5,80.3-16.2c24.6-10.4,46.6-25.3,65.6-44.2c18.9-18.9,33.8-41,44.2-65.6c10.8-25.5,16.2-52.5,16.2-80.3
			s-5.5-54.9-16.2-80.3c-10.4-24.6-25.3-46.6-44.2-65.6s-41-33.8-65.6-44.2C375.4,92.7,348.4,87.2,320.6,87.2L320.6,87.2z"/>
	</g>
	<path class="st5" d="M342.9,101.9c0,0-9.3-0.3-17.3,0.2c0.1-0.2,0.2-0.4,0.4-0.6c0,0-9.5-0.4-17.5,0.2c-7.5,0.6-15.3,1.7-15.3,1.7
		c-23.1,37.1-38.5,101.9-38.5,189.7c0,92.8,13.9,154.1,35.1,189c0,0,6.5,1.2,16.1,2c9,0.8,17.1,0.6,17.1,0.6c0-0.1-0.1-0.2-0.1-0.2
		c9,0.8,17.1,0.6,17.1,0.6c-22.1-34.5-36.7-96.5-36.7-191.6C303.1,204.3,319.2,138.7,342.9,101.9z"/>
</g>
<g id="Layer_2">
</g>
</svg>
