<?xml version="1.0" encoding="utf-8"?>
<!-- Generator: Adobe Illustrator 19.0.0, SVG Export Plug-In . SVG Version: 6.00 Build 0)  -->
<svg version="1.1" id="Layer_1" xmlns="http://www.w3.org/2000/svg" xmlns:xlink="http://www.w3.org/1999/xlink" x="0px" y="0px"
	 viewBox="-234.3 371.7 73.3 99.9" style="enable-background:new -234.3 371.7 73.3 99.9;" xml:space="preserve">
<style type="text/css">
	.st0{display:none;}
	.st1{display:inline;}
	.st2{fill:#FFFFFF;}
</style>
<g class="st0">
	<g class="st1">
		<path d="M-192.5,363.9l-9.2,16.1l-5.3,63.7l0,0.1c0,5.5,4.5,10.1,10.1,10.1h0c5.5,0,10.1-4.5,10.1-10.1L-192.5,363.9z
			 M-194.4,372.2l1.2,16.7l-7.9,13.8l1.8-21.9L-194.4,372.2z M-197,451.4c-4.2,0-7.5-3.4-7.6-7.5l2.9-35.3l8.7-15.2l3.5,50.5
			C-189.5,448-192.8,451.4-197,451.4z"/>
		<path d="M-194.4,417.2h-5.3c-0.7,0-1.2,0.6-1.2,1.2s0.6,1.2,1.2,1.2h5.3c0.7,0,1.2-0.6,1.2-1.2S-193.7,417.2-194.4,417.2z"/>
		<path d="M-194.4,412.8h-5.3c-0.7,0-1.2,0.6-1.2,1.2s0.6,1.2,1.2,1.2h5.3c0.7,0,1.2-0.6,1.2-1.2S-193.7,412.8-194.4,412.8z"/>
		<path d="M-194.4,421.6h-5.3c-0.7,0-1.2,0.6-1.2,1.2s0.6,1.2,1.2,1.2h5.3c0.7,0,1.2-0.6,1.2-1.2S-193.7,421.6-194.4,421.6z"/>
		<path d="M-196.4,389.6c0.3,0,0.6-0.3,0.6-0.6v-5.3c0-0.3-0.3-0.6-0.6-0.6c-0.3,0-0.6,0.3-0.6,0.6v5.3
			C-197,389.4-196.7,389.6-196.4,389.6z"/>
		<circle cx="-197" cy="443.8" r="3.5"/>
	</g>
</g>
<g class="st0">
	<g class="st1">
		<path d="M-196.7,394.3h-7.6c-1,0-1.8,0.8-1.8,1.8c0,1,0.8,1.8,1.8,1.8h7.6c1,0,1.8-0.8,1.8-1.8
			C-194.9,395.1-195.7,394.3-196.7,394.3z"/>
		<path d="M-197,363.9c-8,0-14.5,6.5-14.5,14.5v75.5h29v-75.5C-182.5,370.4-189,363.9-197,363.9z M-197,367.5
			c6,0,10.9,4.9,10.9,10.9v0.7h-21.8v-0.7C-207.9,372.4-203,367.5-197,367.5z M-207.9,390.2h14.2v52.5h-14.2V390.2z M-207.9,450.3
			v-4h16c1,0,1.8-0.8,1.8-1.8v-56c0-1-0.8-1.8-1.8-1.8h-16v-4h21.8v67.7C-186.1,450.3-207.9,450.3-207.9,450.3z"/>
	</g>
</g>
<g class="st0">
	<path class="st1" d="M-183.8,383.3l-9.3-18.5c-0.3-0.6-0.9-0.9-1.5-0.9h-5c-0.6,0-1.2,0.4-1.5,0.9l-9.3,18.5
		c-0.1,0.2-0.2,0.5-0.2,0.7v68.2c0,0.9,0.7,1.7,1.7,1.7h23.5c0.9,0,1.7-0.7,1.7-1.7v-68.2C-183.6,383.8-183.7,383.5-183.8,383.3z
		 M-198.5,367.2h2.9l7.5,15h-17.9L-198.5,367.2z M-207.1,434.3v-32.8h20.2v32.8H-207.1z M-186.9,437.6v3.3h-20.2v-3.3H-186.9z
		 M-207.1,398.2v-3.3h20.2v3.3H-207.1z M-207.1,391.6v-6.1h20.2v6.1H-207.1z M-207.1,450.6v-6.3h20.2v6.3H-207.1z"/>
</g>
<g class="st0">
	<g class="st1">
		<path d="M-200.5,399.6h7c0.9,0,1.7-0.7,1.7-1.7c0-0.9-0.7-1.7-1.7-1.7h-7c-0.9,0-1.7,0.7-1.7,1.7
			C-202.2,398.8-201.4,399.6-200.5,399.6z"/>
		<path d="M-193.5,403.3h-7c-0.9,0-1.7,0.7-1.7,1.7c0,0.9,0.7,1.7,1.7,1.7h7c0.9,0,1.7-0.7,1.7-1.7
			C-191.8,404.1-192.6,403.3-193.5,403.3z"/>
		<path d="M-183.8,383.3l-9.3-18.5c-0.3-0.6-0.9-0.9-1.5-0.9h-5c-0.6,0-1.2,0.4-1.5,0.9l-9.3,18.5c-0.1,0.2-0.2,0.5-0.2,0.7v68.2
			c0,0.9,0.7,1.7,1.7,1.7h23.5c0.9,0,1.7-0.7,1.7-1.7v-68.2C-183.6,383.8-183.7,383.5-183.8,383.3z M-198.5,367.2h2.9l7.5,15h-17.9
			L-198.5,367.2z M-186.9,385.5V441h-20.2v-55.6H-186.9z M-207.1,450.6v-6.2h20.2v6.2H-207.1z"/>
	</g>
</g>
<g class="st0">
	<g class="st1">
		<path d="M-197.9,406.8h-5.3c-0.7,0-1.3,0.6-1.3,1.3c0,0.7,0.6,1.3,1.3,1.3h5.3c0.7,0,1.3-0.6,1.3-1.3
			C-196.6,407.4-197.2,406.8-197.9,406.8z"/>
		<path d="M-203.2,404h5.3c0.7,0,1.3-0.6,1.3-1.3c0-0.7-0.6-1.3-1.3-1.3h-5.3c-0.7,0-1.3,0.6-1.3,1.3
			C-204.5,403.4-203.9,404-203.2,404z"/>
		<path d="M-184.6,417.3c-0.7,0-1.3,0.6-1.3,1.3v2.7h-1.4c-0.7,0-1.3,0.6-1.3,1.3c0,0.7,0.6,1.3,1.3,1.3h1.4v16.9h-4.6v-50.4
			c0-3.5-1.8-6.6-4.4-8.4v-6.4c0-0.7-0.6-1.3-1.3-1.3h-0.5v-4.2c0-0.7-0.6-1.3-1.3-1.3h-1.7v-4.1c0-0.5-0.4-0.9-0.9-0.9
			c-0.5,0-0.9,0.4-0.9,0.9v4.1h-1.7c-0.7,0-1.3,0.6-1.3,1.3v4.2h-0.5c-0.7,0-1.3,0.6-1.3,1.3v6.4c-2.7,1.8-4.4,4.9-4.4,8.4v52.9h5
			h0.3v9.4c0,0.7,0.6,1.3,1.3,1.3h7.1c0.7,0,1.3-0.6,1.3-1.3v-9.4h5.3h5.9c0.7,0,1.3-0.6,1.3-1.3v-23.4
			C-183.3,417.8-183.9,417.3-184.6,417.3z M-202,371.4h2.8v2.4h-2.8V371.4z M-192.9,396.1h-15.3v-2.8h15.3V396.1z M-192.9,398.6
			v36.7h-15.3v-36.7H-192.9z M-203.7,380.7v-3.9h6.4v3.9c0,0,0,0,0,0c-0.2-0.1-0.3-0.1-0.5-0.1c-0.1,0-0.3-0.1-0.4-0.1
			c-0.1,0-0.3-0.1-0.4-0.1c-0.2,0-0.4-0.1-0.5-0.1c-0.1,0-0.2,0-0.4,0c-0.3,0-0.6,0-0.9,0l0,0l0,0c0,0,0,0,0,0c-0.3,0-0.6,0-0.9,0
			c-0.1,0-0.2,0-0.4,0c-0.2,0-0.3,0-0.5,0.1c-0.2,0-0.3,0.1-0.5,0.1c-0.1,0-0.3,0.1-0.4,0.1C-203.4,380.6-203.6,380.6-203.7,380.7
			C-203.7,380.7-203.7,380.7-203.7,380.7z M-204.4,383.7c2.3-1.3,5.3-1.3,7.6,0c2.3,1.3,3.8,3.8,3.8,6.6v0.5h-15.3v-0.5
			C-208.2,387.5-206.6,385-204.4,383.7z M-202.9,451.4v-1.7h4.6v1.7H-202.9z M-198.3,448.4h-4.6v-5.2h4.6V448.4z M-197,440.7h-7.1
			h-1.6h-2.5v-2.8h15.3v2.8H-197z"/>
	</g>
</g>
<g class="st0">
	<path class="st1" d="M-185.8,384.5l-9.9-19.8c-0.2-0.5-0.7-0.8-1.2-0.8c-0.5,0-1,0.3-1.2,0.8l-9.9,19.8c-0.1,0.2-0.1,0.4-0.1,0.6
		v57.5c0,6.2,5.1,11.3,11.3,11.3h0c6.2,0,11.3-5.1,11.3-11.3v-57.5C-185.7,384.9-185.8,384.7-185.8,384.5z M-203,386.5v46.9h-2.5
		v-46.9H-203z M-196.3,433.3v-46.9h3.9v46.9H-196.3z M-197.7,433.3h-3.9v-46.9h3.9V433.3z M-188.5,436.1v3.1h-17v-3.1H-188.5z
		 M-191,433.3v-46.9h2.5v46.9H-191z M-204.6,383.7l4.5-9.1h6.2l4.5,9.1H-204.6z M-197,451.1c-4.7,0-8.5-3.8-8.5-8.5v-0.5h17v0.5
		C-188.5,447.3-192.3,451.1-197,451.1z"/>
</g>
<g class="st0">
	<g class="st1">
		<path d="M-197.7,400.1h-6.9c-0.9,0-1.6,0.7-1.6,1.6c0,0.9,0.7,1.6,1.6,1.6h6.9c0.9,0,1.6-0.7,1.6-1.6
			C-196.1,400.8-196.9,400.1-197.7,400.1z"/>
		<path d="M-185.8,379.9c-4.5-1-7.6-5-7.6-9.6h0v-5.2c0-0.7-0.5-1.2-1.2-1.2h-2.6c-0.3,0-0.6,0.1-0.9,0.4l-4,4
			c-0.2,0.2-0.4,0.5-0.4,0.9v1.2h0c0,4.6-3.1,8.5-7.6,9.6l-1.3,0.3l2.6,73.7h21.4l2.6-73.7L-185.8,379.9z M-199.9,369.6l3.3-3.3h0.8
			v3.6h-4.1V369.6z M-199.3,372.3h2.8c0.7,4.8,4,8.8,8.6,10.3l-0.2,6.1h-19.7l-0.2-6.1C-203.3,381.1-200,377.1-199.3,372.3z
			 M-205.8,442h15.8l-0.1,1.8h-15.7L-205.8,442z M-205.8,440.4l-1.6-44h19.1l-1.6,44H-205.8z M-207.5,393.2l-0.1-2.8h19.5l-0.1,2.8
			H-207.5z M-205.5,450.7l-0.1-3.6h15.5l-0.1,3.6H-205.5z"/>
	</g>
</g>
<g class="st0">
	<g class="st1">
		<path d="M-196.9,397.1h-7.2c-0.9,0-1.7,0.8-1.7,1.7c0,0.9,0.8,1.7,1.7,1.7h7.2c0.9,0,1.7-0.8,1.7-1.7
			C-195.2,397.8-195.9,397.1-196.9,397.1z"/>
		<path d="M-188.3,363.7h-17.5l-5.1,20.6l2.5,69.5h22.6l2.5-69.3l0-0.2L-188.3,363.7z M-203.1,367.1h12.1l4.3,17.5l0,0.5h-20.7
			l0-0.5L-203.1,367.1z M-205.3,441.3h16.7l-0.1,1.8h-16.6L-205.3,441.3z M-205.4,439.6l-1.7-46.4h20.1l-1.7,46.4H-205.4z
			 M-207.2,389.8l-0.1-3h20.6l-0.1,3H-207.2z M-205,450.4l-0.1-3.8h16.3l-0.1,3.8H-205z"/>
		<path d="M-193.6,379.2c0.2,0.8,0.9,1.3,1.7,1.3c0.1,0,0.3,0,0.4,0c0.9-0.2,1.5-1.1,1.2-2.1l-1.3-5.4c-0.2-0.9-1.2-1.5-2.1-1.2
			c-0.9,0.2-1.5,1.1-1.2,2.1L-193.6,379.2z"/>
	</g>
</g>
<g class="st0">
	<g class="st1">
		<path d="M-242,365.2v87.2h90v-87.2L-242,365.2z M-238,388.6L-238,388.6c0-4.4,3.6-8,8-8c4.4,0,8,3.6,8,8v51.2h-16V388.6z
			 M-213.3,448.4H-238v-4.6h18c1.1,0,2-0.9,2-2v-53.2c0-6.6-5.4-12-12-12c-3.1,0-5.9,1.2-8,3.1v-10.4l24.6,0V448.4z M-209.3,395.8
			L-209.3,395.8c0-8.4,6.8-15.2,15.2-15.2c8.4,0,15.2,6.8,15.2,15.2v44h-30.3C-209.3,439.8-209.3,395.8-209.3,395.8z M-156,448.4
			h-53.3v-4.6h32.4c1.1,0,2-0.9,2-2v-46c0-10.6-8.6-19.2-19.2-19.2c-6.2,0-11.7,2.9-15.2,7.5v-14.8h53.3
			C-156,369.2-156,448.4-156,448.4z"/>
		<circle cx="-231" cy="399.4" r="4.3"/>
		<circle cx="-202.2" cy="399.4" r="4.3"/>
	</g>
</g>
<g class="st0">
	<g class="st1">
		<circle cx="-205.4" cy="409.5" r="6.3"/>
		<path d="M-197,363.9c-24.8,0-45,20.2-45,45s20.2,45,45,45c24.8,0,45-20.2,45-45S-172.2,363.9-197,363.9z M-197,369.8
			c16.9,0,31.3,10.8,36.8,25.9h-73.5C-228.3,380.6-213.9,369.8-197,369.8z M-157.9,408.9c0,4-0.6,7.8-1.7,11.4h-74.7
			c-1.1-3.6-1.7-7.4-1.7-11.4c0-2.5,0.2-4.9,0.7-7.3h76.8C-158.2,404-157.9,406.4-157.9,408.9z M-197,448c-15.3,0-28.6-8.9-35-21.8
			h70C-168.4,439.1-181.7,448-197,448z"/>
	</g>
</g>
<g class="st0">
	<g class="st1">
		<path d="M-195.8,395.8h-7.4c-1,0-1.7,0.8-1.7,1.7c0,1,0.8,1.7,1.7,1.7h7.4c1,0,1.7-0.8,1.7-1.7
			C-194,396.6-194.8,395.8-195.8,395.8z"/>
		<path d="M-197,438.3c-0.5,0-0.9,0.4-0.9,0.9v8.7c0,0.5,0.4,0.9,0.9,0.9s0.9-0.4,0.9-0.9v-8.7C-196.1,438.7-196.5,438.3-197,438.3z
			"/>
		<path d="M-203.2,438.3c-0.5,0-0.9,0.4-0.9,0.9v8.7c0,0.5,0.4,0.9,0.9,0.9s0.9-0.4,0.9-0.9v-8.7
			C-202.3,438.7-202.7,438.3-203.2,438.3z"/>
		<path d="M-190.8,438.3c-0.5,0-0.9,0.4-0.9,0.9v8.7c0,0.5,0.4,0.9,0.9,0.9s0.9-0.4,0.9-0.9v-8.7
			C-190,438.7-190.4,438.3-190.8,438.3z"/>
		<path d="M-184.7,363.9h-24.7c-1,0-1.7,0.8-1.7,1.7v86.5c0,1,0.8,1.7,1.7,1.7h24.7c1,0,1.7-0.8,1.7-1.7v-86.5
			C-182.9,364.7-183.7,363.9-184.7,363.9z M-207.6,372.4h21.2v2h-21.2V372.4z M-207.6,391.9h21.2v41.4h-21.2V391.9z M-207.6,388.5
			v-12.4h21.2v12.4H-207.6z M-186.4,367.4v3.3h-21.2v-3.3H-186.4z M-207.6,450.4v-13.6h21.2v13.6L-207.6,450.4L-207.6,450.4z"/>
	</g>
</g>
<g class="st0">
	<g class="st1">
		<path d="M-156.6,406.6h-19.3v-22.1c0-11.4-9.3-20.6-20.6-20.6c-11.4,0-20.7,9.3-20.7,20.7v22.1h-19.3c-1.4,0-2.6,1.1-2.6,2.6v31.9
			c0,1.4,1.1,2.6,2.6,2.6h2.3v7.7c0,1.4,1.1,2.6,2.6,2.6h70.2c1.4,0,2.6-1.1,2.6-2.6v-7.7h2.3c1.4,0,2.6-1.1,2.6-2.6v-31.9
			C-154,407.8-155.1,406.6-156.6,406.6z M-212,384.5c0-8.6,7-15.5,15.5-15.5c8.1,0,14.8,6.2,15.5,14.2l-10.9,10.9
			c-0.5,0.5-0.5,1.3,0,1.8c0.2,0.2,0.6,0.4,0.9,0.4s0.7-0.1,0.9-0.4l9.2-9.2v4.6l-11,11c-0.5,0.5-0.5,1.3,0,1.8
			c0.2,0.2,0.6,0.4,0.9,0.4s0.7-0.1,0.9-0.4l9.2-9.2v11.7H-212V384.5z M-233.9,411.8h16.7h41.3h16.7v26.8h-2.3h-70.2h-2.3
			C-233.9,438.6-233.9,411.8-233.9,411.8z M-163.9,448.8h-65.1v-5.1h65.1V448.8z"/>
		<path d="M-225.5,421.3h10.9c1.4,0,2.6-1.1,2.6-2.6c0-1.4-1.1-2.6-2.6-2.6h-10.9c-1.4,0-2.6,1.1-2.6,2.6
			C-228,420.2-226.9,421.3-225.5,421.3z"/>
		<circle cx="-196.5" cy="382.4" r="5.4"/>
	</g>
</g>
<g class="st0">
	<g class="st1">
		<circle cx="-198.9" cy="398.5" r="2.5"/>
		<path d="M-211.7,433.1c-4.4,0-7.9,3.6-7.9,7.9s3.6,7.9,7.9,7.9c4.4,0,7.9-3.6,7.9-7.9C-203.7,436.6-207.3,433.1-211.7,433.1z
			 M-211.7,447.7c-3.7,0-6.7-3-6.7-6.7s3-6.7,6.7-6.7c3.7,0,6.7,3,6.7,6.7C-204.9,444.7-207.9,447.7-211.7,447.7z"/>
		<path d="M-182.3,433.1c-4.4,0-7.9,3.6-7.9,7.9s3.6,7.9,7.9,7.9c4.4,0,7.9-3.6,7.9-7.9C-174.4,436.6-178,433.1-182.3,433.1z
			 M-182.3,447.7c-3.7,0-6.7-3-6.7-6.7s3-6.7,6.7-6.7c3.7,0,6.7,3,6.7,6.7C-175.6,444.7-178.6,447.7-182.3,447.7z"/>
		<path d="M-175.8,429.9C-175.8,429.8-175.8,429.8-175.8,429.9C-175.9,429.8-175.9,429.8-175.8,429.9c-3.3-1.9-5.4-5.4-5.4-9.2
			c0-0.6-0.5-1.2-1.2-1.2c0,0,0,0,0,0c0,0,0,0,0,0s0,0,0,0c0,0,0,0,0,0c-1.8,0-3.5,0.3-5.1,0.9v-47.1c0-5.2-4.3-9.5-9.5-9.5l0,0
			c-2.5,0-4.9,1-6.7,2.8c-1.8,1.8-2.8,4.2-2.8,6.7v47.1c-1.6-0.6-3.3-0.9-5.1-0.9h0c0,0,0,0,0,0c0,0,0,0,0,0c-0.6,0-1.2,0.5-1.2,1.2
			c0,3.8-2,7.3-5.3,9.1c0,0,0,0,0,0c0,0,0,0,0,0c-3.9,2.3-6.4,6.6-6.4,11.1c0,7.1,5.8,12.9,12.9,12.9c7.1,0,12.9-5.8,12.9-12.9
			v-13.1l1.6-2.1l1.9,2.4V441c0,7.1,5.8,12.9,12.9,12.9s12.9-5.8,12.9-12.9C-169.4,436.4-171.9,432.2-175.8,429.9z M-197,366.2
			c3.9,0,7.1,3.2,7.1,7.1v29.5l-8.3-36.6C-197.8,366.3-197.4,366.2-197,366.2L-197,366.2z M-202,368.3c0.5-0.5,1-0.9,1.6-1.2
			l10.6,46.3v8.1c-1.7,1-3.2,2.4-4.4,4.1l-9.8-12.7v-39.6C-204.1,371.5-203.4,369.7-202,368.3z M-211.7,451.5
			c-5.8,0-10.6-4.7-10.6-10.6c0-3.7,2-7.2,5.2-9.1c0,0,0,0,0,0c0,0,0,0,0,0c3.6-2.1,6-5.8,6.4-10c3.9,0.3,7.4,2.5,9.4,5.8V441
			C-201.1,446.8-205.8,451.5-211.7,451.5z M-199.8,425.5c-1.2-1.6-2.7-2.9-4.3-3.9v-4.8l5.5,7.1L-199.8,425.5z M-182.3,451.5
			c-5.8,0-10.6-4.7-10.6-10.6v-13.3c2-3.3,5.6-5.5,9.4-5.8c0.4,4.1,2.8,7.9,6.4,10c0,0,0,0,0,0c0,0,0,0,0,0c3.2,1.9,5.2,5.4,5.2,9.1
			C-171.8,446.8-176.5,451.5-182.3,451.5z"/>
	</g>
</g>
<g class="st0">
	<path class="st1" d="M-183.3,414.4c-0.7,0-1.3,0.6-1.3,1.3v2.9h-1.5c-0.7,0-1.3,0.6-1.3,1.3s0.6,1.3,1.3,1.3h1.5v17.9h-5v-53.4
		c0-0.2,0-0.4-0.1-0.6l-7.4-14.9c-0.2-0.5-0.7-0.7-1.2-0.7h-1v-4.8c0-0.6-0.4-1-1-1c-0.5,0-1,0.4-1,1v4.8h-1c-0.5,0-1,0.3-1.2,0.7
		l-7.4,14.9c-0.1,0.2-0.1,0.4-0.1,0.6v54.7c0,0.7,0.6,1.3,1.3,1.3h4.1h0.3v10.6c0,0.7,0.6,1.3,1.3,1.3h7.5c0.7,0,1.3-0.6,1.3-1.3
		v-10.6h4.3h7.6c0.7,0,1.3-0.6,1.3-1.3v-24.8C-181.9,415-182.5,414.4-183.3,414.4z M-197.9,448.1h-4.9v-5.5h4.9V448.1z
		 M-202.7,451.2v-1.8h4.9v1.8H-202.7z M-203.9,377.1h7.1l3.6,7.2h-14.4L-203.9,377.1z M-201.5,372.4h2.3l1.4,2.8h-5.1L-201.5,372.4z
		 M-205.7,439.3h-2.7v-4.7h4.3c0.7,0,1.3-0.6,1.3-1.3c0-0.7-0.6-1.3-1.3-1.3h-4.3v-3h4.3c0.7,0,1.3-0.6,1.3-1.3s-0.6-1.3-1.3-1.3
		h-4.3V387h16.2v52.2H-205.7z"/>
</g>
<g class="st0">
	<path class="st1" d="M-184.8,365.1c0-0.1,0-0.1-0.1-0.2c0,0,0-0.1,0-0.1c0-0.1-0.1-0.1-0.1-0.2c0,0,0,0,0-0.1
		c-0.1-0.2-0.2-0.3-0.4-0.4c0,0-0.1,0-0.1,0c-0.1,0-0.1-0.1-0.2-0.1c0,0-0.1,0-0.1,0c-0.1,0-0.1,0-0.2-0.1c-0.1,0-0.2,0-0.3,0h-6.2
		c0,0,0,0,0,0h-14.4c-0.8,0-1.5,0.6-1.5,1.5v87.1c0,0.4,0.2,0.8,0.4,1c0.3,0.3,0.6,0.4,1,0.4l20.6,0c0.8,0,1.5-0.6,1.5-1.5v-87.1
		C-184.8,365.2-184.8,365.1-184.8,365.1z M-205.3,451v-84.2l17.7,0v5.8h-4.7c-0.8,0-1.5,0.6-1.5,1.5s0.6,1.5,1.5,1.5h4.7v5.8h-4.7
		c-0.8,0-1.5,0.6-1.5,1.5s0.6,1.5,1.5,1.5h4.7v5.8h-4.7c-0.8,0-1.5,0.6-1.5,1.5s0.6,1.5,1.5,1.5h4.7v5.8h-4.7
		c-0.8,0-1.5,0.7-1.5,1.5c0,0.8,0.6,1.5,1.5,1.5h4.7v5.8h-9.4c-0.8,0-1.5,0.6-1.5,1.5s0.7,1.5,1.5,1.5h9.4v5.3h-4.7
		c-0.8,0-1.5,0.6-1.5,1.5c0,0.8,0.6,1.5,1.5,1.5h4.7v5.8h-4.7c-0.8,0-1.5,0.6-1.5,1.5s0.6,1.5,1.5,1.5h4.7v5.8h-4.7
		c-0.8,0-1.5,0.6-1.5,1.5s0.6,1.5,1.5,1.5h4.7v5.8h-4.7c-0.8,0-1.5,0.7-1.5,1.5c0,0.8,0.6,1.5,1.5,1.5h4.7v6.3L-205.3,451z"/>
</g>
<g class="st0">
	<path class="st1" d="M-183.6,374h-1.9v-8.1c0-1.2-0.9-2.1-2.1-2.1h-19.9c-1.1,0-2.1,0.9-2.1,2.1v8.1h-0.5c-4.5,0-8.3,3.6-8.3,8
		v63.9c0,4.4,3.7,8,8.3,8h26.4c4.6,0,8.3-3.6,8.3-8V382C-175.4,377.6-179.1,374-183.6,374 M-205.4,367.9h15.7v6h-15.7V367.9z
		 M-179.5,445.9c0,2.1-1.8,3.9-4.1,3.9H-210c-2.3,0-4.1-1.7-4.1-3.9V382c0-2.1,1.8-3.9,4.1-3.9h26.4c2.3,0,4.1,1.7,4.1,3.9
		C-179.5,382-179.5,445.9-179.5,445.9z M-187.9,428h-17.8c-1.5,0-2.8,1.2-2.8,2.8v6.3c0,1.5,1.3,2.8,2.8,2.8h17.8
		c1.5,0,2.8-1.3,2.8-2.8v-6.3C-185.2,429.3-186.4,428-187.9,428"/>
</g>
<g class="st0">
	<path class="st1" d="M-183.6,374h-1.9v-8.1c0-1.1-0.9-2.1-2.1-2.1h-19.9c-1.2,0-2.1,0.9-2.1,2.1v8.1h-0.5c-4.5,0-8.3,3.6-8.3,8
		v63.9c0,4.4,3.7,8,8.3,8h26.4c4.5,0,8.2-3.6,8.2-8V382C-175.4,377.6-179.1,374-183.6,374 M-205.4,367.9h15.7v6h-15.7V367.9z
		 M-179.5,445.9c0,2.1-1.8,3.9-4.1,3.9H-210c-2.3,0-4.1-1.7-4.1-3.9V382c0-2.1,1.8-3.9,4.1-3.9h26.4c2.3,0,4.1,1.7,4.1,3.9
		L-179.5,445.9L-179.5,445.9z M-187.9,428h-17.8c-1.5,0-2.8,1.2-2.8,2.8v6.3c0,1.5,1.2,2.8,2.8,2.8h17.8c1.5,0,2.8-1.2,2.8-2.8v-6.3
		C-185.2,429.3-186.4,428-187.9,428 M-187.9,409.3h-17.8c-1.5,0-2.8,1.3-2.8,2.8v6.3c0,1.5,1.2,2.8,2.8,2.8h17.8
		c1.5,0,2.8-1.3,2.8-2.8v-6.3C-185.2,410.5-186.4,409.3-187.9,409.3"/>
</g>
<g class="st0">
	<path class="st1" d="M-183.6,374h-1.9v-8.1c0-1.1-0.9-2.1-2.1-2.1h-19.9c-1.1,0-2.1,0.9-2.1,2.1v8.1h-0.5c-4.6,0-8.3,3.6-8.3,8
		v63.9c0,4.4,3.7,8,8.3,8h26.4c4.6,0,8.3-3.6,8.3-8V382C-175.4,377.6-179.1,374-183.6,374 M-205.4,367.9h15.7v6h-15.7V367.9z
		 M-179.5,445.9c0,2.1-1.8,3.9-4.1,3.9H-210c-2.3,0-4.1-1.7-4.1-3.9V382c0-2.1,1.8-3.9,4.1-3.9h26.4c2.3,0,4.1,1.7,4.1,3.9V445.9z
		 M-187.9,428h-17.8c-1.5,0-2.8,1.2-2.8,2.8v6.3c0,1.5,1.2,2.8,2.8,2.8h17.8c1.5,0,2.8-1.2,2.8-2.8v-6.3
		C-185.2,429.3-186.4,428-187.9,428 M-187.9,409.3h-17.8c-1.5,0-2.8,1.3-2.8,2.8v6.3c0,1.5,1.2,2.8,2.8,2.8h17.8
		c1.5,0,2.8-1.3,2.8-2.8V412C-185.2,410.5-186.4,409.3-187.9,409.3 M-187.9,390.6h-17.8c-1.5,0-2.8,1.2-2.8,2.8v6.3
		c0,1.5,1.2,2.8,2.8,2.8h17.8c1.5,0,2.8-1.2,2.8-2.8v-6.3C-185.2,391.9-186.4,390.6-187.9,390.6"/>
</g>
<g class="st0">
	<path class="st1" d="M-155.9,396.3l-36.5-30.6c-2.5-2.1-6.6-2.1-9.1,0l-36.4,30.5c-2.2,1.9-4,5.6-4,8.5v36.2c0,2.4,0.1,5.9,0.1,7.8
		c0.1,2.9,3,5.3,6.4,5.3h77.3c3.4,0,6.3-2.8,6.3-6.3v-35.9c0-2.2,0-4.1,0-4.6v-2.4C-151.9,401.9-153.7,398.1-155.9,396.3
		 M-235.4,399.2l36.4-30.5c0.5-0.4,1.2-0.7,2-0.7c0.8,0,1.5,0.2,2,0.7l36.5,30.6c0.6,0.5,1.1,1.2,1.6,2.1l-32.1,19l-3.4-2.8
		c-5.6-3.7-11-0.1-11.4,0.2l-3,2.6l-30.3-18.9C-236.7,400.6-236.1,399.7-235.4,399.2 M-237.9,447.8c-0.1-1.9-0.1-4.8-0.1-6.9v-35.7
		l28.4,17.7L-237.9,447.8z M-235.1,450l33.5-29.4c0,0,3.6-2.4,7.1-0.1l36.2,29.5H-235.1z M-156,411.8v35.5l-30.2-24.6l30.2-17.9
		l0,2.1C-155.9,407.1-156,407.4-156,411.8"/>
</g>
<g class="st0">
	<path class="st1" d="M-159.7,373.5h-74.6c-4.3,0-7.7,3.8-7.7,8.4v49.4c0,4.6,3.5,8.4,7.7,8.4h74.6c4.3,0,7.7-3.8,7.7-8.4v-49.4
		C-151.9,377.2-155.4,373.5-159.7,373.5 M-234.2,377.7h74.6c0,0,0.1,0,0.1,0l-25.8,28.4h-23.1L-234.2,377.7
		C-234.3,377.7-234.3,377.7-234.2,377.7 M-237.1,433.7c-0.4-0.7-0.7-1.5-0.7-2.4v-49.4c0-0.5,0.1-1,0.2-1.4l24.9,27.3L-237.1,433.7z
		 M-159.7,435.5H-233l23.8-25.2h24.7L-159.7,435.5C-159.7,435.5-159.7,435.5-159.7,435.5 M-156.2,431.3c0,0.5-0.1,1-0.2,1.5
		l-24.7-25.1l24.8-27.2c0.1,0.4,0.2,0.9,0.2,1.4C-156.2,381.9-156.2,431.3-156.2,431.3z"/>
</g>
<g class="st0">
	<g class="st1">
		<path d="M-197,420c-14.3,0-26-11.6-26-26c0-14.3,11.6-26,26-26c14.3,0,26,11.6,26,26S-182.7,420-197,420z M-197,370.2
			c-13.2,0-23.9,10.7-23.9,23.9c0,13.2,10.7,23.9,23.9,23.9s23.9-10.7,23.9-23.9S-183.8,370.2-197,370.2z"/>
	</g>
	<g class="st1">
		<path d="M-226.3,453.7c-0.6,0-1-0.5-1-1c0-12.2,7.3-23.2,18.5-27.9c0.5-0.2,1.1,0,1.4,0.5c0.2,0.5,0,1.1-0.5,1.4
			c-10.5,4.4-17.2,14.7-17.2,26C-225.3,453.3-225.7,453.7-226.3,453.7z"/>
	</g>
	<g class="st1">
		<path d="M-167.7,453.7c-0.6,0-1-0.5-1-1c0-13.4-9.5-25-22.6-27.7c-0.6-0.1-0.9-0.7-0.8-1.2c0.1-0.6,0.7-0.9,1.2-0.8
			c14,2.9,24.2,15.4,24.2,29.7C-166.6,453.3-167.1,453.7-167.7,453.7z"/>
	</g>
	<path class="st1" d="M-168.1,384.8c-3.9-12.2-15.4-21.1-28.9-21.1s-24.9,8.9-28.9,21.1c-5.1,0.1-9.2,4.2-9.2,9.3
		c0,5.1,4.1,9.2,9.2,9.3c3.7,11.5,14.1,20,26.5,20.9c0.4,0.9,1.3,1.6,2.4,1.6c1.4,0,2.6-1.2,2.6-2.6c0-1.4-1.2-2.6-2.6-2.6
		c-1.1,0-1.9,0.6-2.4,1.5c-14.5-1.2-25.9-13.4-25.9-28.2c0-15.6,12.7-28.3,28.3-28.3c12.4,0,23,8.1,26.8,19.2c0.2,0.6,0.4,1.3,0.6,2
		c0.6,2.3,0.9,4.6,0.9,7.1s-0.3,4.8-0.9,7.1c-0.2,0.7-0.4,1.3-0.6,2c0,0,0,0,0,0c0.6,0.1,1.3,0.2,2,0.2c5.1,0,9.3-4.2,9.3-9.3
		C-158.9,389-163,384.8-168.1,384.8z M-233,394.1c0-3.8,2.9-6.8,6.6-7.2c-0.6,2.3-0.9,4.7-0.9,7.2c0,2.5,0.3,4.9,0.9,7.2
		C-230.1,400.9-233,397.8-233,394.1z M-167.5,401.2c0.6-2.3,0.9-4.7,0.9-7.2c0-2.5-0.3-4.9-0.9-7.2c3.7,0.3,6.6,3.4,6.6,7.2
		S-163.9,400.9-167.5,401.2z"/>
</g>
<g class="st0">
	<g class="st1">
		<path d="M-160.4,405.7c-0.6,0-1,0.5-1,1v15.1c0,0.6,0.5,1,1,1c0.6,0,1-0.5,1-1v-15.1C-159.4,406.2-159.8,405.7-160.4,405.7z"/>
		<path d="M-156.1,388.3h-8.5c-2.2,0-4,1.8-4,4v1c-10.6-8.7-27-7.5-27.7-7.5h-10.6c-3,0-5.4,2.4-5.4,5.4c0,1.3,0.5,2.4,1.2,3.4
			h-25.2c-3,0-5.4,2.4-5.4,5.4c0,3,2.4,5.4,5.4,5.4h14.4c-0.7,0.9-1.2,2.1-1.2,3.4c0,2.6,1.9,4.8,4.4,5.3c-0.8,0.9-1.3,2.1-1.3,3.5
			c0,3,2.4,5.4,5.4,5.4h2c-0.7,0.9-1.2,2.1-1.2,3.4c0,3,2.4,5.4,5.4,5.4l10.6,0c0.2,0,0.9,0,2.2,0c5.1,0,18.2-0.5,27.2-5.6
			c0.4,1.8,2,3.1,3.9,3.1h8.5c2.2,0,4-1.8,4-4v-33.1C-152.1,390.1-153.9,388.3-156.1,388.3z M-168.7,424c-10.6,6.6-29,5.8-29.2,5.8
			h-10.6c-1.8,0-3.4-1.5-3.4-3.4s1.5-3.4,3.4-3.4h4.4c0.6,0,1-0.5,1-1s-0.5-1-1-1h-10.6c-1.8,0-3.4-1.5-3.4-3.4
			c0-1.8,1.5-3.4,3.4-3.4h7.5c0.6,0,1-0.5,1-1c0-0.6-0.5-1-1-1h-10.6c-1.8,0-3.4-1.5-3.4-3.4s1.5-3.4,3.4-3.4h10.6c0.6,0,1-0.5,1-1
			s-0.5-1-1-1h-29.2c-1.8,0-3.4-1.5-3.4-3.4c0-1.8,1.5-3.4,3.4-3.4h37.2c0.6,0,1-0.5,1-1c0-0.6-0.5-1-1-1h-7.8
			c-1.8,0-3.4-1.5-3.4-3.4c0-1.8,1.5-3.4,3.4-3.4l10.7,0c0.2,0,17.8-1.2,27.6,8.2L-168.7,424L-168.7,424z M-154.2,425.4
			c0,1.1-0.9,1.9-1.9,1.9h-8.5c-1.1,0-1.9-0.9-1.9-1.9v-33.1c0-1.1,0.9-1.9,1.9-1.9h8.5c1.1,0,1.9,0.9,1.9,1.9V425.4z"/>
		<path d="M-160.4,394.2c-1.5,0-2.7,1.2-2.7,2.7c0,1.5,1.2,2.7,2.7,2.7c1.5,0,2.7-1.2,2.7-2.7C-157.7,395.4-158.9,394.2-160.4,394.2
			z M-160.4,398.6c-0.9,0-1.7-0.8-1.7-1.7c0-0.9,0.8-1.7,1.7-1.7c0.9,0,1.7,0.8,1.7,1.7C-158.7,397.9-159.5,398.6-160.4,398.6z"/>
		<path d="M-189.6,392.2c7.4,1.3,13.1,3.9,17.1,8c0.1,0.1,0.2,0.2,0.4,0.2c0.1,0,0.3-0.1,0.4-0.2c0.2-0.2,0.2-0.5,0-0.7
			c-4.2-4.2-10.1-6.9-17.7-8.2c-0.3-0.1-0.6,0.1-0.6,0.4C-190.1,391.9-189.9,392.1-189.6,392.2z"/>
	</g>
</g>
<g class="st0">
	<g class="st1">
		<path d="M-183.5,445.8h-11.8c-0.7,0-1.2,0.5-1.2,1.2c0,0.7,0.5,1.2,1.2,1.2h11.8c0.7,0,1.2-0.5,1.2-1.2
			C-182.3,446.4-182.8,445.8-183.5,445.8z"/>
		<path d="M-197,378.1c0.7,0,1.2-0.5,1.2-1.2v-11.8c0-0.7-0.5-1.2-1.2-1.2c-0.7,0-1.2,0.5-1.2,1.2v11.8
			C-198.2,377.5-197.7,378.1-197,378.1z"/>
		<path d="M-207.1,381.5c0.2,0.2,0.5,0.4,0.9,0.4c0.3,0,0.6-0.1,0.9-0.4c0.5-0.5,0.5-1.2,0-1.7l-8.3-8.3c-0.5-0.5-1.2-0.5-1.7,0
			c-0.5,0.5-0.5,1.2,0,1.7L-207.1,381.5z"/>
		<path d="M-208.8,389.9c0-0.7-0.5-1.2-1.2-1.2h-11.8c-0.7,0-1.2,0.5-1.2,1.2c0,0.7,0.5,1.2,1.2,1.2h11.8
			C-209.4,391.1-208.8,390.6-208.8,389.9z"/>
		<path d="M-187.8,381.9c0.3,0,0.6-0.1,0.9-0.4l8.3-8.3c0.5-0.5,0.5-1.2,0-1.7s-1.2-0.5-1.7,0l-8.3,8.3c-0.5,0.5-0.5,1.2,0,1.7
			C-188.4,381.8-188.1,381.9-187.8,381.9z"/>
		<path d="M-172.2,388.7h-11.8c-0.7,0-1.2,0.5-1.2,1.2c0,0.7,0.5,1.2,1.2,1.2h11.8c0.7,0,1.2-0.5,1.2-1.2
			C-171,389.2-171.5,388.7-172.2,388.7z"/>
		<path d="M-202.9,444.7c-1.3,0-2.3,1.1-2.3,2.3c0,1.3,1.1,2.3,2.3,2.3c1.3,0,2.3-1.1,2.3-2.3C-200.6,445.7-201.6,444.7-202.9,444.7
			z M-202.9,448.2c-0.6,0-1.1-0.5-1.1-1.1c0-0.6,0.5-1.1,1.1-1.1c0.6,0,1.1,0.5,1.1,1.1C-201.8,447.6-202.3,448.2-202.9,448.2z"/>
		<path d="M-175.1,417.7v-8.3c0-2.6-2.1-4.7-4.7-4.7c-0.8,0-1.6,0.2-2.2,0.6v-0.8c0-2.6-2.1-4.7-4.7-4.7c-0.8,0-1.6,0.2-2.2,0.6
			v-12.9c0-2.6-2.1-4.7-4.7-4.7c-1.4,0-2.6,0.6-3.4,1.5c-0.9-0.9-2.1-1.5-3.4-1.5c-2.6,0-4.7,2.1-4.7,4.7v19
			c-0.7-0.4-1.4-0.6-2.2-0.6c-2.6,0-4.7,2.1-4.7,4.7l0,8.2c0,0.6-0.9,13,5.5,21.5c-2.1,0.5-3.6,2.3-3.6,4.5v4.4
			c0,2.6,2.1,4.7,4.7,4.7h23.6c2.6,0,4.7-2.1,4.7-4.7v-4.4c0-1.7-1-3.3-2.4-4.1C-174.6,431.9-175.1,418.3-175.1,417.7z
			 M-179.5,449.2c0,1.2-1,2.2-2.2,2.2h-23.6c-1.2,0-2.2-1-2.2-2.2v-4.4c0-1.2,1-2.2,2.2-2.2h23.6c1.2,0,2.2,1,2.2,2.2L-179.5,449.2
			L-179.5,449.2z M-182,440.2h-21.4c-7.1-7.6-6.2-21-6.2-21.2v-8.3c0-1.2,1-2.2,2.2-2.2c1.2,0,2.2,1,2.2,2.2v6.1
			c0,0.7,0.5,1.2,1.2,1.2c0.7,0,1.2-0.5,1.2-1.2v-29.1c0-1.2,1-2.2,2.2-2.2c1.2,0,2.2,1,2.2,2.2v7.3v15.6c0,0.7,0.5,1.2,1.2,1.2
			s1.2-0.5,1.2-1.2v-15.6v-7.3c0-1.2,1-2.2,2.2-2.2c1.2,0,2.2,1,2.2,2.2v22.9c0,0.7,0.5,1.2,1.2,1.2c0.7,0,1.2-0.5,1.2-1.2v-5.9
			c0-1.2,1-2.2,2.2-2.2c1.2,0,2.2,1,2.2,2.2v8.3c0,0.7,0.5,1.2,1.2,1.2c0.7,0,1.2-0.5,1.2-1.2v-3.4c0-1.2,1-2.2,2.2-2.2
			s2.2,1,2.2,2.2l0,8.3C-177.6,417.9-177,431.9-182,440.2z"/>
		<path d="M-206.4,424.2c-0.1-0.3-0.4-0.6-0.7-0.5c-0.3,0.1-0.6,0.4-0.5,0.7c1,6,3.2,10.7,6.5,14c0.1,0.1,0.3,0.2,0.4,0.2
			c0.2,0,0.3-0.1,0.4-0.2c0.2-0.2,0.2-0.6,0-0.9C-203.4,434.4-205.5,429.9-206.4,424.2z"/>
	</g>
</g>
<g class="st0">
	<g class="st1">
		<path d="M-183.3,445.3h-12.5c-0.7,0-1.3,0.6-1.3,1.3c0,0.7,0.6,1.3,1.3,1.3h12.5c0.7,0,1.3-0.6,1.3-1.3
			C-182,445.9-182.6,445.3-183.3,445.3z"/>
		<path d="M-179.1,440c5.2-9.4,4.7-23.9,4.6-24.5v-8.8c0-2.7-2.2-4.9-4.9-4.9c-0.9,0-1.7,0.2-2.4,0.6v-0.8c0-2.7-2.2-4.9-4.9-4.9
			c-0.9,0-1.7,0.2-2.4,0.6v-13.7c0-2.7-2.2-4.9-4.9-4.9c-1.5,0-2.7,0.6-3.6,1.6c-0.9-1-2.2-1.6-3.6-1.6c-2.7,0-4.9,2.2-4.9,4.9v20.2
			c-0.7-0.4-1.5-0.6-2.4-0.6c-2.7,0-4.9,2.2-4.9,4.9l0,8.7c0,0.6-1,13.8,5.9,22.8c-2.2,0.5-3.8,2.5-3.8,4.8v4.7
			c0,2.7,2.2,4.9,4.9,4.9h25.1c2.7,0,4.9-2.2,4.9-4.9v-4.7C-176.5,442.4-177.6,440.8-179.1,440z M-211,416.8V408
			c0-1.3,1.1-2.4,2.4-2.4c1.3,0,2.4,1.1,2.4,2.4v6.4c0,0.7,0.6,1.3,1.3,1.3s1.3-0.6,1.3-1.3v-30.9c0-1.3,1.1-2.4,2.4-2.4
			c1.3,0,2.4,1.1,2.4,2.4v7.7v16.5c0,0.7,0.6,1.3,1.3,1.3s1.3-0.6,1.3-1.3v-16.5v-7.7c0-1.3,1.1-2.4,2.4-2.4c1.3,0,2.4,1.1,2.4,2.4
			v24.2c0,0.7,0.6,1.3,1.3,1.3s1.3-0.6,1.3-1.3v-6.2c0-1.3,1.1-2.4,2.4-2.4s2.4,1.1,2.4,2.4v8.8c0,0.7,0.6,1.3,1.3,1.3
			s1.3-0.6,1.3-1.3v-3.6c0-1.3,1.1-2.4,2.4-2.4s2.4,1.1,2.4,2.4l0,8.9c0,0.2,0.6,15-4.7,23.8h-22.7C-211.9,431.3-211,417-211,416.8z
			 M-179.1,449c0,1.3-1.1,2.4-2.4,2.4h-25.1c-1.3,0-2.4-1.1-2.4-2.4v-4.7c0-1.3,1.1-2.4,2.4-2.4h25.1c1.3,0,2.4,1.1,2.4,2.4
			L-179.1,449L-179.1,449z"/>
		<path d="M-203.9,444.1c-1.4,0-2.5,1.1-2.5,2.5c0,1.4,1.1,2.5,2.5,2.5c1.4,0,2.5-1.1,2.5-2.5C-201.5,445.3-202.6,444.1-203.9,444.1
			z M-203.9,447.8c-0.7,0-1.2-0.5-1.2-1.2s0.5-1.2,1.2-1.2c0.7,0,1.2,0.5,1.2,1.2C-202.7,447.3-203.3,447.8-203.9,447.8z"/>
		<path d="M-201.6,437.6c0.2,0,0.3-0.1,0.5-0.2c0.3-0.3,0.3-0.7,0-0.9c-3.3-3.3-5.5-8-6.5-14.1c-0.1-0.4-0.4-0.6-0.7-0.5
			c-0.4,0.1-0.6,0.4-0.5,0.7c1.1,6.3,3.4,11.3,6.9,14.8C-201.9,437.5-201.7,437.6-201.6,437.6z"/>
		<path d="M-198.7,372.2c7.3,0,13.2,5.9,13.2,13.2c0,0.7,0.6,1.3,1.3,1.3s1.3-0.6,1.3-1.3c0-8.7-7.1-15.8-15.8-15.8
			s-15.8,7.1-15.8,15.8c0,3.7,1.3,7.3,3.7,10.2c0.3,0.3,0.6,0.5,1,0.5c0.3,0,0.6-0.1,0.8-0.3c0.5-0.5,0.6-1.3,0.2-1.8
			c-2-2.4-3.1-5.4-3.1-8.5C-211.9,378.1-206,372.2-198.7,372.2z"/>
		<path d="M-212.7,396.6c-2.8-3.3-4.3-7.5-4.3-11.8c0-10.1,8.2-18.3,18.3-18.3c10.1,0,18.3,8.2,18.3,18.3c0,0.7,0.6,1.3,1.3,1.3
			c0.7,0,1.3-0.6,1.3-1.3c0-11.5-9.3-20.8-20.8-20.8s-20.8,9.3-20.8,20.8c0,4.9,1.8,9.7,4.9,13.5c0.3,0.3,0.6,0.5,1,0.5
			c0.3,0,0.6-0.1,0.8-0.3C-212.3,398-212.2,397.2-212.7,396.6z"/>
	</g>
</g>
<g class="st0">
	<g class="st1">
		<path d="M-179.8,443.5h-15c-0.9,0-1.5,0.7-1.5,1.5c0,0.9,0.7,1.5,1.5,1.5h15c0.9,0,1.5-0.7,1.5-1.5S-179,443.5-179.8,443.5z"/>
		<path d="M-204.5,442.1c-1.6,0-3,1.3-3,3s1.3,3,3,3c1.6,0,3-1.3,3-3S-202.9,442.1-204.5,442.1z M-204.5,446.5
			c-0.8,0-1.4-0.6-1.4-1.4s0.6-1.4,1.4-1.4c0.8,0,1.4,0.6,1.4,1.4S-203.7,446.5-204.5,446.5z"/>
		<path d="M-169.2,407.9v-10.5c0-3.3-2.6-5.9-5.9-5.9c-1,0-2,0.3-2.8,0.7v-1c0-3.3-2.7-5.9-5.9-5.9c-1,0-2,0.3-2.8,0.7v-16.4
			c0-3.3-2.6-5.9-5.9-5.9c-1.7,0-3.3,0.8-4.4,1.9c-1.1-1.2-2.6-1.9-4.4-1.9c-3.3,0-5.9,2.6-5.9,5.9v24.1c-0.8-0.5-1.8-0.7-2.8-0.7
			c-3.3,0-5.9,2.6-5.9,5.9l0,10.4c-0.1,0.7-1.2,16.5,7,27.2c-2.6,0.6-4.6,2.9-4.6,5.8v5.6c0,3.3,2.6,5.9,5.9,5.9h30
			c3.3,0,5.9-2.6,5.9-5.9v-5.6c0-2.2-1.2-4.2-3-5.2C-168.5,425.8-169.2,408.6-169.2,407.9z M-174.8,447.9c0,1.6-1.3,2.8-2.8,2.8h-30
			c-1.6,0-2.8-1.3-2.8-2.8v-5.6c0-1.6,1.3-2.8,2.8-2.8h30c1.6,0,2.8,1.3,2.8,2.8C-174.8,442.3-174.8,447.9-174.8,447.9z
			 M-177.9,436.3h-27.1c-9-9.6-7.9-26.7-7.9-27v-10.5c0-1.6,1.3-2.8,2.8-2.8c1.6,0,2.8,1.3,2.8,2.8v7.7c0,0.9,0.7,1.5,1.5,1.5
			c0.9,0,1.5-0.7,1.5-1.5v-37c0-1.6,1.3-2.8,2.8-2.8s2.8,1.3,2.8,2.8v9.2v19.8c0,0.9,0.7,1.5,1.5,1.5c0.9,0,1.5-0.7,1.5-1.5v-19.8
			v-9.2c0-1.6,1.3-2.8,2.8-2.8s2.8,1.3,2.8,2.8v29c0,0.9,0.7,1.5,1.5,1.5s1.5-0.7,1.5-1.5v-7.4c0-1.6,1.3-2.8,2.8-2.8
			c1.6,0,2.8,1.3,2.8,2.8v10.5c0,0.9,0.7,1.5,1.5,1.5s1.5-0.7,1.5-1.5v-4.4c0-1.6,1.3-2.8,2.8-2.8s2.8,1.3,2.8,2.8l0,10.6
			C-172.3,408.1-171.6,425.9-177.9,436.3z"/>
		<path d="M-209,416.1c-0.1-0.4-0.5-0.7-0.9-0.6c-0.4,0.1-0.7,0.5-0.6,0.9c1.3,7.6,4.1,13.5,8.3,17.7c0.1,0.2,0.3,0.2,0.5,0.2
			c0.2,0,0.4-0.1,0.5-0.2c0.3-0.3,0.3-0.8,0-1.1C-205.1,429-207.7,423.3-209,416.1z"/>
		<path d="M-224.7,374.1h12.8c0.9,0,1.5-0.7,1.5-1.5c0-0.8-0.7-1.5-1.5-1.5h-12.8l3.1-3.1c0.6-0.6,0.6-1.6,0-2.2
			c-0.6-0.6-1.6-0.6-2.2,0l-5.7,5.7c-0.6,0.6-0.6,1.6,0,2.2l5.7,5.7c0.3,0.3,0.7,0.5,1.1,0.5c0.4,0,0.8-0.1,1.1-0.5
			c0.6-0.6,0.6-1.6,0-2.2L-224.7,374.1z"/>
		<path d="M-164.5,371.5l-5.7-5.7c-0.6-0.6-1.6-0.6-2.2,0s-0.6,1.6,0,2.2l3.1,3.1h-12.8c-0.9,0-1.5,0.7-1.5,1.5s0.7,1.5,1.5,1.5
			h12.8l-3.1,3.1c-0.6,0.6-0.6,1.6,0,2.2c0.3,0.3,0.7,0.5,1.1,0.5s0.8-0.1,1.1-0.5l5.7-5.7C-163.9,373-163.9,372.1-164.5,371.5z"/>
	</g>
</g>
<g class="st0">
	<g class="st1">
		<path d="M-179.7,443.6h-15c-0.9,0-1.5,0.7-1.5,1.5c0,0.9,0.7,1.5,1.5,1.5h15c0.9,0,1.5-0.7,1.5-1.5
			C-178.2,444.3-178.9,443.6-179.7,443.6z"/>
		<path d="M-174.7,437.2c6.3-11.3,5.6-28.6,5.5-29.3v-10.5c0-3.3-2.7-5.9-5.9-5.9c-1,0-2,0.3-2.8,0.8v-1c0-3.3-2.7-5.9-5.9-5.9
			c-1,0-2,0.3-2.8,0.8v-16.4c0-3.3-2.7-5.9-5.9-5.9c-1.7,0-3.3,0.8-4.4,2c-1.1-1.2-2.6-2-4.4-2c-3.3,0-5.9,2.7-5.9,5.9v24.1
			c-0.8-0.5-1.8-0.8-2.8-0.8c-3.3,0-5.9,2.7-5.9,5.9l0,10.4c-0.1,0.7-1.2,16.5,7,27.2c-2.6,0.6-4.6,2.9-4.6,5.8v5.6
			c0,3.3,2.7,5.9,5.9,5.9h30c3.3,0,5.9-2.7,5.9-5.9v-5.6C-171.6,440.1-172.9,438.2-174.7,437.2z M-212.8,409.5v-10.5
			c0-1.6,1.3-2.8,2.8-2.8s2.8,1.3,2.8,2.8v7.7c0,0.9,0.7,1.5,1.5,1.5c0.9,0,1.5-0.7,1.5-1.5v-37c0-1.6,1.3-2.8,2.8-2.8
			c1.6,0,2.8,1.3,2.8,2.8v9.2v19.8c0,0.9,0.7,1.5,1.5,1.5c0.9,0,1.5-0.7,1.5-1.5v-19.8v-9.2c0-1.6,1.3-2.8,2.8-2.8
			c1.6,0,2.8,1.3,2.8,2.8v29c0,0.9,0.7,1.5,1.5,1.5s1.5-0.7,1.5-1.5v-7.4c0-1.6,1.3-2.8,2.8-2.8c1.6,0,2.8,1.3,2.8,2.8v10.5
			c0,0.9,0.7,1.5,1.5,1.5c0.9,0,1.5-0.7,1.5-1.5v-4.4c0-1.6,1.3-2.8,2.8-2.8s2.8,1.3,2.8,2.8l0,10.6c0,0.2,0.7,18-5.6,28.4H-205
			C-214,426.8-212.9,409.7-212.8,409.5z M-174.7,448c0,1.6-1.3,2.8-2.8,2.8h-30c-1.6,0-2.8-1.3-2.8-2.8v-5.6c0-1.6,1.3-2.8,2.8-2.8
			h30c1.6,0,2.8,1.3,2.8,2.8C-174.7,442.3-174.7,448-174.7,448z"/>
		<path d="M-204.4,442.2c-1.6,0-3,1.3-3,3s1.3,3,3,3s3-1.3,3-3S-202.8,442.2-204.4,442.2z M-204.4,446.6c-0.8,0-1.4-0.6-1.4-1.4
			c0-0.8,0.6-1.4,1.4-1.4s1.4,0.6,1.4,1.4C-203,445.9-203.7,446.6-204.4,446.6z"/>
		<path d="M-201.6,434.3c0.2,0,0.4-0.1,0.5-0.2c0.3-0.3,0.3-0.8,0-1.1c-3.9-3.9-6.6-9.6-7.8-16.9c-0.1-0.4-0.5-0.7-0.9-0.6
			c-0.4,0.1-0.7,0.5-0.6,0.9c1.3,7.6,4.1,13.5,8.3,17.7C-202,434.3-201.8,434.3-201.6,434.3z"/>
		<path d="M-222.3,375c-0.3-0.3-0.7-0.5-1.1-0.5c-0.4,0-0.8,0.2-1.1,0.5c-0.6,0.6-0.6,1.6,0,2.2l5.7,5.7c0.6,0.6,1.6,0.6,2.2,0
			l5.7-5.7c0.6-0.6,0.6-1.6,0-2.2c-0.6-0.6-1.6-0.6-2.2,0l-3.1,3.1v-12.8c0-0.9-0.7-1.5-1.5-1.5c-0.9,0-1.5,0.7-1.5,1.5V378
			L-222.3,375z"/>
	</g>
</g>
<g class="st0">
	<g class="st1">
		<path d="M-231.1,416.7c-1.1,0-1.9,0.9-1.9,1.9v18.8c0,1.1,0.9,1.9,1.9,1.9c1.1,0,1.9-0.9,1.9-1.9v-18.8
			C-229.2,417.5-230,416.7-231.1,416.7z"/>
		<path d="M-231.1,402.6c-2.1,0-3.7,1.7-3.7,3.7c0,2.1,1.7,3.7,3.7,3.7s3.7-1.7,3.7-3.7C-227.4,404.3-229,402.6-231.1,402.6z
			 M-231.1,408.1c-1,0-1.8-0.8-1.8-1.8c0-1,0.8-1.8,1.8-1.8s1.8,0.8,1.8,1.8C-229.3,407.3-230.1,408.1-231.1,408.1z"/>
		<path d="M-154.4,415.8c1.5-1.4,2.5-3.3,2.5-5.5c0-4.1-3.3-7.4-7.4-7.4h-34.3c-1.3,0-2.6-0.8-3.2-2c-0.6-1.2-0.4-2.4,0.8-4.4
			c2.1-3.5,3.2-8,3.1-12.6c0-2.2-0.3-4.4-0.7-6.5c-0.5-2.8-1.5-7.9-6.1-9.8c-2.1-0.8-4.6-0.8-6.7,0c-1.7,0.7-3.4,2-4.4,3.7
			c-1.1,1.8-1.3,3.7-1.4,5.4l-0.1,1.2c-0.1,0.8-0.1,1.6-0.2,2.4c-0.3,3.1-1,6.2-1.9,9.2c-0.9,3.1-2.1,6-3.6,8.6
			c-0.6,1.1-1.3,2.1-2,3.1c-0.6-3.5-3.6-6.2-7.3-6.2h-7.1c-4.1,0-7.4,3.3-7.4,7.4v37.8c0,4.1,3.3,7.4,7.4,7.4h7.1
			c2.8,0,5.2-1.6,6.5-3.9c11.4,6.3,27.8,7,34.2,7c1.6,0,2.5,0,2.7,0h13.3c4.1,0,7.4-3.3,7.4-7.4c0-1.3-0.4-2.5-0.9-3.6h1.3
			c4.1,0,7.4-3.3,7.4-7.4c0-1.5-0.4-2.8-1.2-4c2.9-1,5.1-3.7,5.1-7C-151.9,419.1-152.9,417.2-154.4,415.8z M-224,440.2
			c0,2-1.6,3.6-3.6,3.6h-7.1c-2,0-3.6-1.6-3.6-3.6v-37.8c0-2,1.6-3.6,3.6-3.6h7.1c2,0,3.6,1.6,3.6,3.6V440.2z M-159.3,424.9h-13.3
			c-1.1,0-1.9,0.9-1.9,1.9c0,1.1,0.9,1.9,1.9,1.9h9.4c2,0,3.6,1.6,3.6,3.6c0,2-1.6,3.6-3.6,3.6h-13.3c-1.1,0-1.9,0.9-1.9,1.9
			c0,1.1,0.9,1.9,1.9,1.9h5.5c2,0,3.6,1.6,3.6,3.6c0,2-1.6,3.6-3.6,3.6l-13.3,0c-0.2,0-22.7,0.9-35.8-7v-33c0,0,0,0,0,0
			c2-2,3.8-4.4,5.3-7c1.6-2.9,2.9-6,3.9-9.4c1-3.3,1.6-6.6,2-9.9c0.1-0.8,0.2-1.6,0.2-2.4l0.1-1.2c0.1-1.4,0.2-2.6,0.8-3.6
			c0.6-1,1.6-1.8,2.6-2.2c1.2-0.5,2.7-0.5,3.9,0c2.3,0.9,3.1,3.2,3.8,6.9c0.4,1.9,0.6,3.9,0.6,5.8c0.1,3.9-0.8,7.7-2.5,10.6
			c-1.3,2.1-2.5,5-0.9,8.2c1.3,2.5,3.8,4.1,6.6,4.1h34.3c2,0,3.6,1.6,3.6,3.6s-1.6,3.6-3.6,3.6h-13.3c-1.1,0-1.9,0.9-1.9,1.9
			s0.9,1.9,1.9,1.9h13.3c2,0,3.6,1.6,3.6,3.6C-155.8,423.3-157.4,424.9-159.3,424.9z"/>
		<path d="M-192.1,440.4c-9.3-0.2-16.8-2.4-22.5-6.5c-0.4-0.3-1-0.2-1.4,0.2c-0.3,0.4-0.2,1,0.2,1.4c6,4.4,13.9,6.7,23.6,6.9
			c0,0,0,0,0,0c0.5,0,1-0.4,1-1C-191.2,440.9-191.6,440.4-192.1,440.4z"/>
	</g>
</g>
<g class="st0">
	<g class="st1">
		<path d="M-179.7,443.6h-15c-0.9,0-1.5,0.7-1.5,1.5c0,0.9,0.7,1.5,1.5,1.5h15c0.9,0,1.5-0.7,1.5-1.5
			C-178.2,444.3-178.9,443.6-179.7,443.6z"/>
		<path d="M-174.7,437.2c6.3-11.3,5.6-28.6,5.5-29.3v-10.5c0-3.3-2.7-5.9-5.9-5.9c-1,0-2,0.3-2.8,0.8v-1c0-3.3-2.7-5.9-5.9-5.9
			c-1,0-2,0.3-2.8,0.8v-16.4c0-3.3-2.7-5.9-5.9-5.9c-1.7,0-3.3,0.8-4.4,2c-1.1-1.2-2.6-2-4.4-2c-3.3,0-5.9,2.7-5.9,5.9v24.1
			c-0.8-0.5-1.8-0.8-2.8-0.8c-3.3,0-5.9,2.7-5.9,5.9l0,10.4c-0.1,0.7-1.2,16.5,7,27.2c-2.6,0.6-4.6,2.9-4.6,5.8v5.6
			c0,3.3,2.7,5.9,5.9,5.9h30c3.3,0,5.9-2.7,5.9-5.9v-5.6C-171.6,440.1-172.9,438.2-174.7,437.2z M-212.8,409.5v-10.5
			c0-1.6,1.3-2.8,2.8-2.8s2.8,1.3,2.8,2.8v7.7c0,0.9,0.7,1.5,1.5,1.5c0.9,0,1.5-0.7,1.5-1.5v-37c0-1.6,1.3-2.8,2.8-2.8
			c1.6,0,2.8,1.3,2.8,2.8v9.2v19.8c0,0.9,0.7,1.5,1.5,1.5c0.9,0,1.5-0.7,1.5-1.5v-19.8v-9.2c0-1.6,1.3-2.8,2.8-2.8
			c1.6,0,2.8,1.3,2.8,2.8v29c0,0.9,0.7,1.5,1.5,1.5s1.5-0.7,1.5-1.5v-7.4c0-1.6,1.3-2.8,2.8-2.8c1.6,0,2.8,1.3,2.8,2.8v10.5
			c0,0.9,0.7,1.5,1.5,1.5c0.9,0,1.5-0.7,1.5-1.5v-4.4c0-1.6,1.3-2.8,2.8-2.8s2.8,1.3,2.8,2.8l0,10.6c0,0.2,0.7,18-5.6,28.4H-205
			C-214,426.8-212.9,409.7-212.8,409.5z M-174.7,448c0,1.6-1.3,2.8-2.8,2.8h-30c-1.6,0-2.8-1.3-2.8-2.8v-5.6c0-1.6,1.3-2.8,2.8-2.8
			h30c1.6,0,2.8,1.3,2.8,2.8C-174.7,442.3-174.7,448-174.7,448z"/>
		<path d="M-204.4,442.2c-1.6,0-3,1.3-3,3s1.3,3,3,3s3-1.3,3-3S-202.8,442.2-204.4,442.2z M-204.4,446.6c-0.8,0-1.4-0.6-1.4-1.4
			c0-0.8,0.6-1.4,1.4-1.4s1.4,0.6,1.4,1.4C-203,445.9-203.7,446.6-204.4,446.6z"/>
		<path d="M-201.6,434.3c0.2,0,0.4-0.1,0.5-0.2c0.3-0.3,0.3-0.8,0-1.1c-3.9-3.9-6.6-9.6-7.8-16.9c-0.1-0.4-0.5-0.7-0.9-0.6
			c-0.4,0.1-0.7,0.5-0.6,0.9c1.3,7.6,4.1,13.5,8.3,17.7C-202,434.3-201.8,434.3-201.6,434.3z"/>
		<path d="M-213,372.2c0.3,0.3,0.7,0.5,1.1,0.5c0.4,0,0.8-0.2,1.1-0.5c0.6-0.6,0.6-1.6,0-2.2l-5.7-5.7c-0.6-0.6-1.6-0.6-2.2,0
			l-5.7,5.7c-0.6,0.6-0.6,1.6,0,2.2c0.6,0.6,1.6,0.6,2.2,0l3.1-3.1v12.8c0,0.9,0.7,1.5,1.5,1.5c0.9,0,1.5-0.7,1.5-1.5v-12.8
			L-213,372.2z"/>
	</g>
</g>
<g class="st0">
	<g class="st1">
		<path d="M-231.6,426.5c-0.6-0.6-1.5-0.6-2.1,0s-0.6,1.5,0,2.1l10.2,10.2c0.3,0.3,0.7,0.4,1,0.4c0.4,0,0.8-0.1,1-0.4
			c0.6-0.6,0.6-1.5,0-2.1L-231.6,426.5z"/>
		<path d="M-217.9,442.3c-1.1,1.1-1.1,2.9,0,4c0.5,0.5,1.3,0.8,2,0.8s1.5-0.3,2-0.8c1.1-1.1,1.1-2.9,0-4
			C-215,441.2-216.8,441.2-217.9,442.3z M-214.9,445.3c-0.5,0.5-1.4,0.5-1.9,0c-0.5-0.5-0.5-1.4,0-1.9c0.3-0.3,0.6-0.4,1-0.4
			s0.7,0.1,1,0.4C-214.4,443.9-214.4,444.8-214.9,445.3z"/>
		<path d="M-170.8,386.9l-0.7,0.7c-0.3-0.9-0.7-1.7-1.4-2.4c-2.1-2.1-5.9-2.1-8,0l-7,7c-0.3-0.9-0.7-1.7-1.4-2.4
			c-2.2-2.2-5.8-2.2-8,0l-0.7,0.7c-0.3-0.9-0.7-1.7-1.4-2.4c-2.1-2.1-5.9-2.1-8,0l-7.1,7.1c-0.5,0.5-12.8,11.8-16.2,23.7
			c-1.9-0.5-4.1-0.1-5.6,1.4l-3.8,3.8c-2.2,2.2-2.2,5.8,0,8l20.4,20.4c1.1,1.1,2.5,1.7,4,1.7c1.5,0,2.9-0.6,4-1.7l3.8-3.8
			c1.9-1.9,2.2-4.8,0.8-7c12.8-1.7,22.8-13.2,23.2-13.6l7.2-7.2c2.2-2.2,2.2-5.8,0-8c-0.7-0.7-1.6-1.1-2.5-1.4l16.4-16.4
			c2.2-2.2,2.2-5.8,0-8C-165,384.7-168.6,384.7-170.8,386.9z M-210,446.5l-3.8,3.8c-1,1-2.8,1-3.8,0l-20.4-20.4
			c-1.1-1.1-1.1-2.8,0-3.8l3.8-3.8c0.5-0.5,1.2-0.8,1.9-0.8c0.7,0,1.4,0.3,1.9,0.8l19.1,19.1c0,0,0,0,0,0l1.3,1.3
			C-208.9,443.7-208.9,445.4-210,446.5z M-164.8,392.8l-19.9,19.9l0,0l0,0l-5.2,5.2c-0.6,0.6-0.6,1.5,0,2.1c0.3,0.3,0.7,0.4,1,0.4
			s0.8-0.1,1-0.4l5.2-5.2l0,0c1-1,2.8-1,3.8,0c1.1,1.1,1.1,2.8,0,3.8l-7.2,7.2c-0.1,0.1-10.9,12.5-23.6,12.9l-18.5-18.4
			c2.8-11.4,15.4-23,15.6-23.2l7.2-7.2c1-1,2.8-1,3.8,0c0.5,0.5,0.8,1.2,0.8,1.9c0,0.7-0.3,1.4-0.8,1.9l-3,3c-0.6,0.6-0.6,1.5,0,2.1
			c0.3,0.3,0.7,0.4,1,0.4c0.4,0,0.8-0.1,1-0.4l7.2-7.2c1.1-1.1,2.8-1.1,3.8,0c1.1,1.1,1.1,2.8,0,3.8l-9.2,9.2
			c-0.6,0.6-0.6,1.5,0,2.1c0.3,0.3,0.7,0.4,1,0.4c0.4,0,0.8-0.1,1-0.4l19.7-19.7c1-1,2.8-1,3.8,0c0.5,0.5,0.8,1.2,0.8,1.9
			c0,0.7-0.3,1.4-0.8,1.9l-15.5,15.5c-0.6,0.6-0.6,1.5,0,2.1c0.6,0.6,1.5,0.6,2.1,0l19.7-19.7c1.1-1.1,2.8-1.1,3.8,0
			C-163.8,390-163.8,391.8-164.8,392.8z"/>
		<path d="M-193.2,427.7c-5.8,4.1-11.4,6.2-16.8,6.2c-0.4,0-0.7,0.3-0.7,0.7s0.3,0.7,0.7,0.7c5.7,0,11.6-2.2,17.6-6.4
			c0.3-0.2,0.4-0.7,0.2-1C-192.4,427.5-192.8,427.4-193.2,427.7z"/>
		<path d="M-169.8,369.3l3-3c0.6-0.6,0.6-1.5,0-2.1s-1.5-0.6-2.1,0l-5.5,5.5c-0.3,0.3-0.4,0.7-0.4,1c0,0.4,0.2,0.8,0.4,1l5.5,5.5
			c0.3,0.3,0.7,0.4,1,0.4s0.8-0.1,1-0.4c0.6-0.6,0.6-1.5,0-2.1l-2.9-2.9c8.1,0.3,14.5,7,14.5,15.1c0,3.6-1.3,7.1-3.6,9.8
			c-0.5,0.6-0.5,1.6,0.2,2.1c0.3,0.2,0.6,0.4,1,0.4c0.4,0,0.8-0.2,1.1-0.5c2.8-3.3,4.3-7.4,4.3-11.7
			C-152.2,377.6-160.1,369.6-169.8,369.3z"/>
	</g>
</g>
<g class="st0">
	<g class="st1">
		<path d="M-162.5,426.5c0.6-0.6,1.5-0.6,2.1,0s0.6,1.5,0,2.1l-10.2,10.2c-0.3,0.3-0.7,0.4-1,0.4s-0.8-0.1-1-0.4
			c-0.6-0.6-0.6-1.5,0-2.1L-162.5,426.5z"/>
		<path d="M-180.3,442.3c-1.1,1.1-1.1,2.9,0,4c0.5,0.5,1.3,0.8,2,0.8s1.5-0.3,2-0.8c1.1-1.1,1.1-2.9,0-4
			C-177.3,441.2-179.2,441.2-180.3,442.3z M-179.2,443.4c0.3-0.3,0.6-0.4,1-0.4s0.7,0.1,1,0.4c0.5,0.5,0.5,1.4,0,1.9
			c-0.5,0.5-1.4,0.5-1.9,0C-179.7,444.8-179.7,443.9-179.2,443.4z"/>
		<path d="M-231.4,386.9c-2.2,2.2-2.2,5.8,0,8l16.4,16.4c-0.9,0.2-1.8,0.7-2.5,1.4c-2.2,2.2-2.2,5.8,0,8l7.2,7.2
			c0.4,0.5,10.4,11.9,23.2,13.6c-1.4,2.2-1.1,5.1,0.8,7l3.8,3.8c1.1,1.1,2.5,1.7,4,1.7c1.5,0,2.9-0.6,4-1.7L-154,432
			c2.2-2.2,2.2-5.8,0-8l-3.8-3.8c-1.4-1.5-3.6-1.9-5.6-1.4c-3.4-11.9-15.6-23.2-16.2-23.7l-7.1-7.1c-2.1-2.1-5.9-2.1-8,0
			c-0.7,0.7-1.1,1.5-1.4,2.4l-0.7-0.7c-2.2-2.2-5.8-2.2-8,0c-0.7,0.7-1.2,1.5-1.4,2.4l-7-7c-2.1-2.1-5.9-2.1-8,0
			c-0.7,0.7-1.1,1.5-1.4,2.4l-0.7-0.7C-225.6,384.7-229.2,384.7-231.4,386.9z M-184.2,442.6l1.3-1.3c0,0,0,0,0,0l19.1-19.1
			c0.5-0.5,1.2-0.8,1.9-0.8c0.7,0,1.4,0.3,1.9,0.8l3.8,3.8c1.1,1.1,1.1,2.8,0,3.8l-20.4,20.4c-1,1-2.8,1-3.8,0l-3.8-3.8
			C-185.2,445.4-185.2,443.7-184.2,442.6z M-229.3,389c1.1-1.1,2.8-1.1,3.8,0l19.7,19.7c0.6,0.6,1.5,0.6,2.1,0
			c0.6-0.6,0.6-1.5,0-2.1l-15.5-15.5c-0.5-0.5-0.8-1.2-0.8-1.9c0-0.7,0.3-1.4,0.8-1.9c1-1,2.8-1,3.8,0l19.7,19.7
			c0.3,0.3,0.7,0.4,1,0.4s0.8-0.1,1-0.4c0.6-0.6,0.6-1.5,0-2.1l-9.2-9.2c-1.1-1.1-1.1-2.8,0-3.8c1.1-1.1,2.8-1.1,3.8,0l7.2,7.2
			c0.3,0.3,0.7,0.4,1,0.4c0.4,0,0.8-0.1,1-0.4c0.6-0.6,0.6-1.5,0-2.1l-3-3c-0.5-0.5-0.8-1.2-0.8-1.9c0-0.7,0.3-1.4,0.8-1.9
			c1-1,2.8-1,3.8,0l7.2,7.2c0.2,0.2,12.8,11.8,15.6,23.2l-18.5,18.5c-12.7-0.4-23.5-12.8-23.6-12.9l-7.2-7.2c-1.1-1.1-1.1-2.8,0-3.8
			c1-1,2.8-1,3.8,0l0,0l5.2,5.2c0.3,0.3,0.7,0.4,1,0.4c0.4,0,0.8-0.1,1-0.4c0.6-0.6,0.6-1.5,0-2.1l-5.2-5.2l0,0l0,0l-19.9-19.9
			C-230.3,391.8-230.3,390-229.3,389z"/>
		<path d="M-201,427.7c5.8,4.1,11.4,6.2,16.8,6.2c0.4,0,0.7,0.3,0.7,0.7s-0.3,0.7-0.7,0.7c-5.7,0-11.6-2.2-17.6-6.4
			c-0.3-0.2-0.4-0.7-0.2-1C-201.8,427.5-201.3,427.4-201,427.7z"/>
		<path d="M-224.4,369.3l-3-3c-0.6-0.6-0.6-1.5,0-2.1s1.5-0.6,2.1,0l5.5,5.5c0.3,0.3,0.4,0.7,0.4,1c0,0.4-0.2,0.8-0.4,1l-5.5,5.5
			c-0.3,0.3-0.7,0.4-1,0.4c-0.4,0-0.8-0.1-1-0.4c-0.6-0.6-0.6-1.5,0-2.1l2.9-2.9c-8.1,0.3-14.5,7-14.5,15.1c0,3.6,1.3,7.1,3.6,9.8
			c0.5,0.6,0.5,1.6-0.2,2.1c-0.3,0.2-0.6,0.4-1,0.4c-0.4,0-0.8-0.2-1.1-0.5c-2.8-3.3-4.3-7.4-4.3-11.7
			C-241.9,377.6-234.1,369.6-224.4,369.3z"/>
	</g>
</g>
<g class="st0">
	<g class="st1">
		<path d="M-181.3,445.7h-12c-0.7,0-1.2,0.6-1.2,1.2s0.6,1.2,1.2,1.2h12c0.7,0,1.2-0.6,1.2-1.2S-180.6,445.7-181.3,445.7z"/>
		<path d="M-198.5,378.1c0.7,0,1.2-0.6,1.2-1.2v-12c0-0.7-0.6-1.2-1.2-1.2s-1.2,0.6-1.2,1.2v12
			C-199.7,377.6-199.2,378.1-198.5,378.1z"/>
		<path d="M-206.1,380.5c0.2,0.2,0.6,0.4,0.9,0.4s0.6-0.1,0.9-0.4c0.5-0.5,0.5-1.3,0-1.7l-8.5-8.5c-0.5-0.5-1.3-0.5-1.7,0
			c-0.5,0.5-0.5,1.3,0,1.7L-206.1,380.5z"/>
		<path d="M-206.8,386.2c0-0.7-0.6-1.2-1.2-1.2h-12c-0.7,0-1.2,0.6-1.2,1.2s0.6,1.2,1.2,1.2h12
			C-207.3,387.5-206.8,386.9-206.8,386.2z"/>
		<path d="M-191.8,380.8c0.3,0,0.6-0.1,0.9-0.4l8.5-8.5c0.5-0.5,0.5-1.3,0-1.7c-0.5-0.5-1.3-0.5-1.7,0l-8.5,8.5
			c-0.5,0.5-0.5,1.3,0,1.7C-192.5,380.7-192.1,380.8-191.8,380.8z"/>
		<path d="M-190.2,386.2c0,0.7,0.6,1.2,1.2,1.2h12c0.7,0,1.2-0.6,1.2-1.2s-0.6-1.2-1.2-1.2h-12C-189.7,385-190.2,385.5-190.2,386.2z
			"/>
		<path d="M-177.3,440.6c5-9,4.5-22.8,4.4-23.4v-8.4c0-2.6-2.1-4.7-4.7-4.7c-0.8,0-1.6,0.2-2.3,0.6v-0.8c0-2.6-2.1-4.7-4.7-4.7
			c-0.9,0-1.8,0.3-2.5,0.7c-0.6-1.9-2.4-3.2-4.5-3.2c-0.8,0-1.6,0.2-2.3,0.6v-10.7c0-2.6-2.1-4.7-4.7-4.7c-2.6,0-4.7,2.1-4.7,4.7
			v19.3c-0.7-0.4-1.4-0.6-2.3-0.6c-2.6,0-4.7,2.1-4.7,4.7l0,8.3c0,0.6-0.9,13.2,5.6,21.8c-2.1,0.5-3.7,2.4-3.7,4.6v4.5
			c0,2.6,2.1,4.7,4.7,4.7h24c2.6,0,4.7-2.1,4.7-4.7v-4.5C-174.8,442.9-175.8,441.4-177.3,440.6z M-207.8,418.4V410
			c0-1.2,1-2.3,2.3-2.3c1.2,0,2.3,1,2.3,2.3v6.2c0,0.7,0.6,1.2,1.2,1.2s1.2-0.6,1.2-1.2v-29.6c0-1.2,1-2.3,2.3-2.3
			c1.2,0,2.3,1,2.3,2.3v23.2c0,0.7,0.6,1.2,1.2,1.2s1.2-0.6,1.2-1.2v-8.4c0-1.2,1-2.3,2.3-2.3c1.2,0,2.3,1,2.3,2.3v8.4
			c0,0.7,0.6,1.2,1.2,1.2s1.2-0.6,1.2-1.2v-6c0-1.2,1-2.3,2.3-2.3c1.2,0,2.3,1,2.3,2.3v8.4c0,0.7,0.6,1.2,1.2,1.2s1.2-0.6,1.2-1.2
			v-3.5c0-1.2,1-2.3,2.3-2.3c1.2,0,2.3,1,2.3,2.3l0,8.5c0,0.1,0.6,14.4-4.5,22.7h-21.7C-208.7,432.3-207.8,418.6-207.8,418.4z
			 M-177.3,449.2c0,1.2-1,2.3-2.3,2.3h-24c-1.2,0-2.3-1-2.3-2.3v-4.5c0-1.2,1-2.3,2.3-2.3h24c1.2,0,2.3,1,2.3,2.3V449.2z"/>
		<path d="M-201,444.5c-1.3,0-2.4,1.1-2.4,2.4c0,1.3,1.1,2.4,2.4,2.4s2.4-1.1,2.4-2.4C-198.7,445.6-199.7,444.5-201,444.5z
			 M-201,448.1c-0.6,0-1.1-0.5-1.1-1.1c0-0.6,0.5-1.1,1.1-1.1s1.1,0.5,1.1,1.1C-199.9,447.6-200.4,448.1-201,448.1z"/>
		<path d="M-198.8,438.3c0.2,0,0.3-0.1,0.4-0.2c0.2-0.2,0.2-0.6,0-0.9c-3.2-3.2-5.3-7.7-6.3-13.5c-0.1-0.3-0.4-0.6-0.7-0.5
			c-0.3,0.1-0.6,0.4-0.5,0.7c1,6.1,3.3,10.8,6.6,14.2C-199.1,438.2-198.9,438.3-198.8,438.3z"/>
	</g>
</g>
<g class="st0">
	<g class="st1">
		<path d="M-184.3,444.8h-13.3c-0.8,0-1.4,0.6-1.4,1.4s0.6,1.4,1.4,1.4h13.3c0.8,0,1.4-0.6,1.4-1.4S-183.5,444.8-184.3,444.8z"/>
		<path d="M-179.8,439.1c5.6-10,4.9-25.4,4.9-26v-9.3c0-2.9-2.4-5.2-5.2-5.2c-0.9,0-1.8,0.3-2.5,0.7v-0.9c0-2.9-2.4-5.2-5.2-5.2
			c-1,0-2,0.3-2.8,0.8c-0.7-2.1-2.6-3.6-4.9-3.6c-0.9,0-1.8,0.3-2.5,0.7v-11.8c0-2.9-2.4-5.2-5.2-5.2c-2.9,0-5.2,2.4-5.2,5.2v21.4
			c-0.7-0.4-1.6-0.7-2.5-0.7c-2.9,0-5.2,2.4-5.2,5.2l0,9.2c0,0.6-1,14.7,6.2,24.2c-2.3,0.5-4.1,2.6-4.1,5.1v5c0,2.9,2.4,5.2,5.2,5.2
			h26.6c2.9,0,5.2-2.4,5.2-5.2v-5C-177.1,441.7-178.2,440-179.8,439.1z M-213.7,414.5v-9.3c0-1.4,1.1-2.5,2.5-2.5
			c1.4,0,2.5,1.1,2.5,2.5v6.8c0,0.8,0.6,1.4,1.4,1.4c0.8,0,1.4-0.6,1.4-1.4v-32.8c0-1.4,1.1-2.5,2.5-2.5c1.4,0,2.5,1.1,2.5,2.5v25.8
			c0,0.8,0.6,1.4,1.4,1.4c0.8,0,1.4-0.6,1.4-1.4v-9.3c0-1.4,1.1-2.5,2.5-2.5c1.4,0,2.5,1.1,2.5,2.5v9.3c0,0.8,0.6,1.4,1.4,1.4
			s1.4-0.6,1.4-1.4v-6.6c0-1.4,1.1-2.5,2.5-2.5c1.4,0,2.5,1.1,2.5,2.5v9.3c0,0.8,0.6,1.4,1.4,1.4s1.4-0.6,1.4-1.4v-3.9
			c0-1.4,1.1-2.5,2.5-2.5c1.4,0,2.5,1.1,2.5,2.5l0,9.4c0,0.2,0.6,16-5,25.2h-24.1C-214.7,429.9-213.7,414.7-213.7,414.5z
			 M-179.8,448.7c0,1.4-1.1,2.5-2.5,2.5H-209c-1.4,0-2.5-1.1-2.5-2.5v-5c0-1.4,1.1-2.5,2.5-2.5h26.6c1.4,0,2.5,1.1,2.5,2.5
			L-179.8,448.7L-179.8,448.7z"/>
		<path d="M-206.2,443.5c-1.5,0-2.6,1.2-2.6,2.6c0,1.5,1.2,2.6,2.6,2.6s2.6-1.2,2.6-2.6C-203.6,444.7-204.8,443.5-206.2,443.5z
			 M-206.2,447.4c-0.7,0-1.3-0.6-1.3-1.3c0-0.7,0.6-1.3,1.3-1.3s1.3,0.6,1.3,1.3C-204.9,446.9-205.5,447.4-206.2,447.4z"/>
		<path d="M-203.7,436.6c0.2,0,0.3-0.1,0.5-0.2c0.3-0.3,0.3-0.7,0-1c-3.5-3.5-5.8-8.5-7-15c-0.1-0.4-0.4-0.6-0.8-0.6
			c-0.4,0.1-0.6,0.4-0.6,0.8c1.2,6.7,3.6,12,7.3,15.7C-204.1,436.5-203.9,436.6-203.7,436.6z"/>
		<path d="M-203.4,371.6c4.4,0,8,3.6,8,8c0,0.8,0.6,1.4,1.4,1.4c0.8,0,1.4-0.6,1.4-1.4c0-5.9-4.8-10.8-10.8-10.8
			c-5.9,0-10.8,4.8-10.8,10.8c0,2.5,0.9,5,2.5,7c0.3,0.3,0.7,0.5,1,0.5c0.3,0,0.6-0.1,0.9-0.3c0.6-0.5,0.6-1.4,0.2-1.9
			c-1.2-1.4-1.9-3.3-1.9-5.2C-211.4,375.2-207.8,371.6-203.4,371.6z"/>
		<path d="M-214.4,390.2c0.3,0,0.6-0.1,0.9-0.3c0.6-0.5,0.6-1.4,0.2-1.9c-2-2.3-3.1-5.3-3.1-8.4c0-7.2,5.8-13,13-13
			c7.2,0,13,5.8,13,13c0,0.8,0.6,1.4,1.4,1.4c0.8,0,1.4-0.6,1.4-1.4c0-8.7-7.1-15.7-15.7-15.7c-8.7,0-15.7,7.1-15.7,15.7
			c0,3.7,1.3,7.3,3.7,10.2C-215.1,390-214.8,390.2-214.4,390.2z"/>
	</g>
</g>
<g class="st0">
	<g class="st1">
		<path d="M-176.5,443.6h-15c-0.9,0-1.5,0.7-1.5,1.5c0,0.9,0.7,1.5,1.5,1.5h15c0.9,0,1.5-0.7,1.5-1.5
			C-174.9,444.3-175.6,443.6-176.5,443.6z"/>
		<path d="M-171.4,437.2c6.3-11.3,5.6-28.6,5.6-29.3v-10.6c0-3.3-2.7-5.9-5.9-5.9c-1,0-2,0.3-2.8,0.8v-1c0-3.3-2.7-5.9-5.9-5.9
			c-1.2,0-2.3,0.4-3.2,0.9c-0.8-2.3-3-4-5.6-4c-1,0-2,0.3-2.8,0.8v-13.4c0-3.3-2.7-5.9-5.9-5.9c-3.3,0-5.9,2.7-5.9,5.9v37.4
			c0,0.8-0.3,1.5-0.8,2c-1.1,1.1-2.9,1.1-4,0l-9.2-9.2c-2.3-2.3-6.1-2.3-8.4,0c-1.1,1.1-1.7,2.6-1.7,4.2c0,1.6,0.6,3.1,1.7,4.2
			l7.5,7.5c0.1,0.1,6,5.5,8.5,12.3c1.2,3.3,2.7,6.3,4.6,8.7c-2.6,0.6-4.5,3-4.5,5.7v5.6c0,3.3,2.7,5.9,5.9,5.9h30.1
			c3.3,0,5.9-2.7,5.9-5.9v-5.6C-168.4,440.1-169.6,438.2-171.4,437.2z M-216.8,413.3l-7.5-7.5c-0.5-0.5-0.8-1.2-0.8-2s0.3-1.5,0.8-2
			c1.1-1.1,2.9-1.1,4,0l9.2,9.2c2.2,2.2,6.1,2.2,8.4,0c1.1-1.1,1.8-2.6,1.7-4.2v-37.4c0-1.6,1.3-2.8,2.8-2.8s2.8,1.3,2.8,2.8v29.1
			c0,0.9,0.7,1.5,1.5,1.5c0.9,0,1.5-0.7,1.5-1.5V388c0-1.6,1.3-2.8,2.8-2.8s2.8,1.3,2.8,2.8v10.6c0,0.9,0.7,1.5,1.5,1.5
			c0.9,0,1.5-0.7,1.5-1.5v-7.5c0-1.6,1.3-2.8,2.8-2.8s2.8,1.3,2.8,2.8v10.6c0,0.9,0.7,1.5,1.5,1.5c0.9,0,1.5-0.7,1.5-1.5v-4.4
			c0-1.6,1.3-2.8,2.8-2.8c1.6,0,2.8,1.3,2.8,2.8l0,10.6c0,0.2,0.7,18-5.6,28.5h-27.3c-2.4-2.5-4.2-5.7-5.6-9.6
			C-210.2,419.3-216.6,413.5-216.8,413.3z M-171.5,448c0,1.6-1.3,2.8-2.8,2.8h-30.1c-1.6,0-2.8-1.3-2.8-2.8v-5.6
			c0-1.6,1.3-2.8,2.8-2.8h30.1c1.6,0,2.8,1.3,2.8,2.8V448z"/>
		<path d="M-201.3,442.2c-1.6,0-3,1.3-3,3c0,1.6,1.3,3,3,3c1.6,0,3-1.3,3-3C-198.3,443.5-199.6,442.2-201.3,442.2z M-201.3,446.6
			c-0.8,0-1.4-0.6-1.4-1.4c0-0.8,0.6-1.4,1.4-1.4c0.8,0,1.4,0.6,1.4,1.4C-199.8,445.9-200.5,446.6-201.3,446.6z"/>
		<path d="M-180.2,434.3c0.2,0,0.4-0.1,0.5-0.2c4.2-4.2,7-10.2,8.3-17.8c0.1-0.4-0.2-0.8-0.6-0.9c-0.4-0.1-0.8,0.2-0.9,0.6
			c-1.3,7.3-3.9,13-7.9,16.9c-0.3,0.3-0.3,0.8,0,1.1C-180.6,434.2-180.4,434.3-180.2,434.3z"/>
		<path d="M-225.6,393.2c0.4,0,0.8-0.2,1.1-0.5l13.4-13.4v4.4c0,0.9,0.7,1.5,1.5,1.5c0.9,0,1.5-0.7,1.5-1.5v-8.1
			c0-0.9-0.7-1.5-1.5-1.5h-8.1c-0.9,0-1.5,0.7-1.5,1.5s0.7,1.5,1.5,1.5h4.4l-13.4,13.4c-0.6,0.6-0.6,1.6,0,2.2
			C-226.4,393-226,393.2-225.6,393.2z"/>
	</g>
</g>
<g class="st0">
	<g class="st1">
		<path d="M-233.6,405.7c-0.6,0-1,0.5-1,1v15.1c0,0.6,0.5,1,1,1c0.6,0,1-0.5,1-1v-15.1C-232.5,406.2-233,405.7-233.6,405.7z"/>
		<path d="M-157.6,394.7h-25.2c0.7-0.9,1.2-2.1,1.2-3.4c0-3-2.4-5.4-5.4-5.4h-10.6c-0.7-0.1-17-1.2-27.7,7.5v-1c0-2.2-1.8-4-4-4
			h-8.5c-2.2,0-4,1.8-4,4v33.1c0,2.2,1.8,4,4,4h8.5c1.9,0,3.5-1.3,3.9-3.1c9,5.1,22,5.6,27.2,5.6c1.3,0,2,0,2.2,0l10.6,0
			c3,0,5.4-2.4,5.4-5.4c0-1.3-0.5-2.4-1.2-3.4h2c3,0,5.4-2.4,5.4-5.4c0-1.3-0.5-2.5-1.3-3.5c2.5-0.5,4.4-2.7,4.4-5.3
			c0-1.3-0.5-2.4-1.2-3.4h14.4c3,0,5.4-2.4,5.4-5.4C-152.1,397.1-154.6,394.7-157.6,394.7z M-227.4,425.4c0,1.1-0.9,1.9-1.9,1.9
			h-8.5c-1.1,0-1.9-0.9-1.9-1.9v-33.1c0-1.1,0.9-1.9,1.9-1.9h8.5c1.1,0,1.9,0.9,1.9,1.9L-227.4,425.4L-227.4,425.4z M-157.6,403.5
			h-29.2c-0.6,0-1,0.5-1,1c0,0.6,0.5,1,1,1h10.6c1.8,0,3.4,1.5,3.4,3.4c0,1.8-1.5,3.4-3.4,3.4h-10.6c-0.6,0-1,0.5-1,1s0.5,1,1,1h7.5
			c1.8,0,3.4,1.5,3.4,3.4s-1.5,3.4-3.4,3.4h-10.6c-0.6,0-1,0.5-1,1s0.5,1,1,1h4.4c1.8,0,3.4,1.5,3.4,3.4c0,1.8-1.5,3.4-3.4,3.4
			h-10.6c-0.2,0-18.6,0.7-29.2-5.8v-27.8c9.8-9.4,27.4-8.2,27.6-8.2l10.7,0c1.8,0,3.4,1.5,3.4,3.4s-1.5,3.4-3.4,3.4h-7.8
			c-0.6,0-1,0.5-1,1s0.5,1,1,1h37.2c1.8,0,3.4,1.5,3.4,3.4C-154.2,402-155.7,403.5-157.6,403.5z"/>
		<path d="M-233.6,394.2c-1.5,0-2.7,1.2-2.7,2.7c0,1.5,1.2,2.7,2.7,2.7c1.5,0,2.7-1.2,2.7-2.7C-230.8,395.4-232.1,394.2-233.6,394.2
			z M-233.6,398.6c-0.9,0-1.7-0.8-1.7-1.7c0-0.9,0.8-1.7,1.7-1.7c0.9,0,1.7,0.8,1.7,1.7C-231.9,397.9-232.6,398.6-233.6,398.6z"/>
		<path d="M-204.6,391.2c-7.6,1.3-13.5,4.1-17.7,8.2c-0.2,0.2-0.2,0.5,0,0.7c0.1,0.1,0.2,0.2,0.4,0.2c0.1,0,0.3-0.1,0.4-0.2
			c4-4,9.8-6.7,17.1-8c0.3,0,0.5-0.3,0.4-0.6C-204,391.3-204.3,391.1-204.6,391.2z"/>
	</g>
</g>
<g>
	<g>
		<path d="M-188.3,466.7c-16.6,0-22.2-7.8-22.2-31.1v-10.3c0-2.4,1.9-4.3,4.3-4.3c2.4,0,4.3,1.9,4.3,4.3v7.6l0-36.3
			c0-2.4,1.9-4.3,4.3-4.3s4.3,1.9,4.3,4.3V425l0-10.3c0-2.4,1.9-4.3,4.3-4.3c2.4,0,4.3,1.9,4.3,4.3V425l0-7.3c0-2.4,1.9-4.3,4.3-4.3
			c2.4,0,4.3,1.9,4.3,4.3V428l0-4.3c0-2.4,1.9-4.3,4.3-4.3c2.4,0,4.3,1.9,4.3,4.3l0,10.4C-167.6,454.2-171,466.7-188.3,466.7z"/>
		<path class="st2" d="M-197.6,393.7c1.5,0,2.8,1.2,2.8,2.8V425c0,0.8,0.7,1.5,1.5,1.5s1.5-0.7,1.5-1.5v-10.3c0-1.5,1.2-2.8,2.8-2.8
			c1.5,0,2.8,1.2,2.8,2.8V425c0,0.8,0.7,1.5,1.5,1.5c0.8,0,1.5-0.7,1.5-1.5v-7.3c0-1.5,1.2-2.8,2.8-2.8c1.5,0,2.8,1.2,2.8,2.8V428
			c0,0.8,0.7,1.5,1.5,1.5c0.8,0,1.5-0.7,1.5-1.5v-4.3c0-1.5,1.2-2.8,2.8-2.8c1.5,0,2.8,1.2,2.8,2.8l0,10.4c0,21.6-4.4,31-19.2,31
			c-15.2,0-20.7-6.6-20.7-29.6v-10.3c0-1.5,1.2-2.8,2.8-2.8c1.5,0,2.8,1.2,2.8,2.8v7.6c0,0.8,0.7,1.5,1.5,1.5s1.5-0.7,1.5-1.5v-36.3
			C-200.4,394.9-199.1,393.7-197.6,393.7 M-197.6,390.7c-3.2,0-5.8,2.6-5.8,5.8v23.7c-0.8-0.5-1.8-0.7-2.8-0.7
			c-3.2,0-5.8,2.6-5.8,5.8v10.3c0,24.1,6.2,32.6,23.7,32.6c18.4,0,22.2-13.6,22.2-34l0-10.4c0-3.2-2.6-5.8-5.8-5.8
			c-1,0-2,0.3-2.8,0.7v-1c0-3.2-2.6-5.8-5.8-5.8c-1.1,0-2.2,0.3-3.1,0.9c-0.8-2.3-2.9-3.9-5.5-3.9c-1,0-2,0.3-2.8,0.7v-13.1
			C-191.8,393.3-194.4,390.7-197.6,390.7L-197.6,390.7z"/>
	</g>
	<g>
		<path d="M-178.4,387.3c-6.4-0.2-12.6-0.3-18.6-0.3c-5.9,0-12.2,0.1-18.6,0.3l0.2,4.1l-12.5-6.6l12-7.6l0.2,4.1
			c6.5-0.2,12.8-0.4,18.8-0.4c6,0,12.3,0.1,18.8,0.4l0.2-4.1l12,7.6l-12.5,6.6L-178.4,387.3z"/>
		<path class="st2" d="M-176.6,379.9l7.6,4.8l-7.9,4.2l0.1-3c-6.7-0.3-13.5-0.4-20.1-0.4c-6.6,0-13.4,0.1-20.1,0.4l0.1,3l-7.9-4.2
			l7.6-4.8l0.1,3c6.8-0.3,13.6-0.4,20.3-0.4c6.7,0,13.5,0.1,20.3,0.4L-176.6,379.9 M-179.4,374.6l-0.2,5.2c-6-0.2-11.8-0.3-17.4-0.3
			c-5.6,0-11.4,0.1-17.4,0.3l-0.2-5.2l-4.4,2.8l-7.6,4.8l-4.4,2.8l4.6,2.4l7.9,4.2l4.6,2.4l-0.2-5.2l0,0c5.8-0.2,11.6-0.3,17-0.3
			c5.5,0,11.2,0.1,17,0.3l0,0l-0.2,5.2l4.6-2.4l7.9-4.2l4.6-2.4l-4.4-2.8l-7.6-4.8L-179.4,374.6L-179.4,374.6z"/>
	</g>
</g>
</svg>
